<?xml version="1.0" encoding="UTF-8"?>
<svg id="Camada_1" data-name="Camada 1" xmlns="http://www.w3.org/2000/svg" viewBox="0 0 312.51 578.59">
  <defs>
    <style>
      .cls-1 {
        font-size: 18.63px;
      }

      .cls-1, .cls-2, .cls-3, .cls-4 {
        font-family: ArialMT, Arial;
      }

      .cls-5 {
        fill: none;
        stroke: #000;
        stroke-linecap: round;
        stroke-linejoin: round;
        stroke-width: .25px;
      }

      .cls-6 {
        letter-spacing: -.02em;
      }

      .cls-2 {
        font-size: 2.74px;
      }

      .cls-3 {
        font-size: 16.44px;
      }

      .cls-4 {
        font-size: 7.67px;
      }
    </style>
  </defs>
  <g id="LINE">
    <line class="cls-5" x1="29.81" y1="88.86" x2="48.42" y2="88.86"/>
  </g>
  <g id="LINE-2" data-name="LINE">
    <line class="cls-5" x1="80.26" y1="88.86" x2="93.44" y2="88.86"/>
  </g>
  <g id="LINE-3" data-name="LINE">
    <line class="cls-5" x1="29.81" y1="81.88" x2="48.42" y2="81.88"/>
  </g>
  <g id="LINE-4" data-name="LINE">
    <line class="cls-5" x1="80.26" y1="81.88" x2="93.44" y2="81.88"/>
  </g>
  <g id="CIRCLE">
    <circle class="cls-5" cx="64.34" cy="85.37" r="16.3"/>
  </g>
  <g id="LINE-5" data-name="LINE">
    <line class="cls-5" x1="60.85" y1="114.47" x2="60.85" y2="101.29"/>
  </g>
  <g id="LINE-6" data-name="LINE">
    <line class="cls-5" x1="60.85" y1="69.45" x2="60.85" y2="58.02"/>
  </g>
  <g id="LINE-7" data-name="LINE">
    <line class="cls-5" x1="67.83" y1="114.47" x2="67.83" y2="101.29"/>
  </g>
  <g id="LINE-8" data-name="LINE">
    <line class="cls-5" x1="67.83" y1="69.45" x2="67.83" y2="58.02"/>
  </g>
  <g id="CIRCLE-2" data-name="CIRCLE">
    <circle class="cls-5" cx="122.54" cy="85.37" r="16.3"/>
  </g>
  <g id="LINE-9" data-name="LINE">
    <line class="cls-5" x1="119.05" y1="114.47" x2="119.05" y2="101.29"/>
  </g>
  <g id="LINE-10" data-name="LINE">
    <line class="cls-5" x1="119.05" y1="69.45" x2="119.05" y2="58.02"/>
  </g>
  <g id="LINE-11" data-name="LINE">
    <line class="cls-5" x1="126.04" y1="114.47" x2="126.04" y2="101.29"/>
  </g>
  <g id="LINE-12" data-name="LINE">
    <line class="cls-5" x1="126.04" y1="69.45" x2="126.04" y2="58.02"/>
  </g>
  <g id="LINE-13" data-name="LINE">
    <line class="cls-5" x1="35.24" y1="114.47" x2="151.64" y2="114.47"/>
  </g>
  <g id="LINE-14" data-name="LINE">
    <line class="cls-5" x1="151.64" y1="114.47" x2="151.64" y2="96.62"/>
  </g>
  <g id="LINE-15" data-name="LINE">
    <line class="cls-5" x1="157.08" y1="96.62" x2="157.08" y2="74.12"/>
  </g>
  <g id="LINE-16" data-name="LINE">
    <line class="cls-5" x1="151.64" y1="74.12" x2="151.64" y2="58.02"/>
  </g>
  <g id="LINE-17" data-name="LINE">
    <line class="cls-5" x1="151.64" y1="58.02" x2="35.24" y2="58.02"/>
  </g>
  <g id="LINE-18" data-name="LINE">
    <line class="cls-5" x1="35.24" y1="58.02" x2="35.24" y2="74.12"/>
  </g>
  <g id="LINE-19" data-name="LINE">
    <line class="cls-5" x1="29.81" y1="74.12" x2="29.81" y2="96.62"/>
  </g>
  <g id="LINE-20" data-name="LINE">
    <line class="cls-5" x1="35.24" y1="96.62" x2="35.24" y2="114.47"/>
  </g>
  <g id="LWPOLYLINE">
    <polygon class="cls-5" points="157.08 81.88 138.46 81.88 157.08 81.88 157.08 81.88"/>
  </g>
  <g id="LWPOLYLINE-2" data-name="LWPOLYLINE">
    <polygon class="cls-5" points="93.44 81.88 106.63 81.88 93.44 81.88 93.44 81.88"/>
  </g>
  <g id="LWPOLYLINE-3" data-name="LWPOLYLINE">
    <polygon class="cls-5" points="157.08 88.86 138.46 88.86 157.08 88.86 157.08 88.86"/>
  </g>
  <g id="LWPOLYLINE-4" data-name="LWPOLYLINE">
    <polygon class="cls-5" points="93.44 88.86 106.63 88.86 93.44 88.86 93.44 88.86"/>
  </g>
  <g id="LINE-21" data-name="LINE">
    <line class="cls-5" x1="157.08" y1="96.62" x2="151.64" y2="96.62"/>
  </g>
  <g id="LINE-22" data-name="LINE">
    <line class="cls-5" x1="35.24" y1="96.62" x2="29.81" y2="96.62"/>
  </g>
  <g id="LINE-23" data-name="LINE">
    <line class="cls-5" x1="157.08" y1="74.12" x2="151.64" y2="74.12"/>
  </g>
  <g id="LINE-24" data-name="LINE">
    <line class="cls-5" x1="35.24" y1="74.12" x2="29.81" y2="74.12"/>
  </g>
  <g id="DIMENSION">
    <g id="LINE-25" data-name="LINE">
      <line class="cls-5" x1="170.38" y1="86.92" x2="170.38" y2="83.82"/>
    </g>
    <g id="SOLID">
      <polygon points="170.06 86.92 170.7 86.92 170.38 88.86 170.38 88.86 170.06 86.92"/>
    </g>
    <g id="SOLID-2" data-name="SOLID">
      <polygon points="170.7 83.82 170.06 83.82 170.38 81.88 170.38 81.88 170.7 83.82"/>
    </g>
    <g id="MTEXT">
      <text class="cls-4" transform="translate(169.8 87.47) rotate(-90)"><tspan x="0" y="0">9</tspan></text>
    </g>
  </g>
  <g id="DIMENSION-2" data-name="DIMENSION">
    <g id="LINE-26" data-name="LINE">
      <line class="cls-5" x1="66.28" y1="138.12" x2="120.6" y2="138.12"/>
    </g>
    <g id="SOLID-3" data-name="SOLID">
      <polygon points="66.28 137.79 66.28 138.44 64.34 138.12 64.34 138.12 66.28 137.79"/>
    </g>
    <g id="SOLID-4" data-name="SOLID">
      <polygon points="120.6 138.44 120.6 137.79 122.54 138.12 122.54 138.12 120.6 138.44"/>
    </g>
    <g id="MTEXT-2" data-name="MTEXT">
      <text class="cls-4" transform="translate(89.2 137.54)"><tspan x="0" y="0">75</tspan></text>
    </g>
  </g>
  <g id="DIMENSION-3" data-name="DIMENSION">
    <g id="LINE-27" data-name="LINE">
      <line class="cls-5" x1="37.18" y1="42.88" x2="149.7" y2="42.88"/>
    </g>
    <g id="SOLID-5" data-name="SOLID">
      <polygon points="37.18 42.55 37.18 43.2 35.24 42.88 35.24 42.88 37.18 42.55"/>
    </g>
    <g id="SOLID-6" data-name="SOLID">
      <polygon points="149.7 43.2 149.7 42.55 151.64 42.88 151.64 42.88 149.7 43.2"/>
    </g>
    <g id="MTEXT-3" data-name="MTEXT">
      <text class="cls-4" transform="translate(86.89 42.3)"><tspan x="0" y="0">150</tspan></text>
    </g>
  </g>
  <g id="DIMENSION-4" data-name="DIMENSION">
    <g id="LINE-28" data-name="LINE">
      <line class="cls-5" x1="121.02" y1="54.35" x2="124.12" y2="54.35"/>
    </g>
    <g id="SOLID-7" data-name="SOLID">
      <polygon points="121.02 54.03 121.02 54.67 119.08 54.35 119.08 54.35 121.02 54.03"/>
    </g>
    <g id="SOLID-8" data-name="SOLID">
      <polygon points="124.12 54.67 124.12 54.03 126.06 54.35 126.06 54.35 124.12 54.67"/>
    </g>
    <g id="MTEXT-4" data-name="MTEXT">
      <text class="cls-4" transform="translate(120.47 53.77)"><tspan x="0" y="0">9</tspan></text>
    </g>
  </g>
  <g id="DIMENSION-5" data-name="DIMENSION">
    <g id="LINE-29" data-name="LINE">
      <line class="cls-5" x1="113.9" y1="73.87" x2="132.73" y2="95.54"/>
    </g>
    <g id="SOLID-9" data-name="SOLID">
      <polygon points="114.14 73.65 113.66 74.08 112.63 72.4 112.63 72.4 114.14 73.65"/>
    </g>
    <g id="SOLID-10" data-name="SOLID">
      <polygon points="132.48 95.75 132.97 95.33 134 97 134 97 132.48 95.75"/>
    </g>
    <g id="MTEXT-5" data-name="MTEXT">
      <text class="cls-2" transform="translate(117.2 76.88) rotate(49.02)"><tspan x="0" y="0">2 X 42 PROF 16</tspan></text>
    </g>
  </g>
  <g id="LINE-30" data-name="LINE">
    <line class="cls-5" x1="60.47" y1="204.72" x2="60.47" y2="195.41"/>
  </g>
  <g id="LINE-31" data-name="LINE">
    <line class="cls-5" x1="67.46" y1="204.72" x2="67.46" y2="195.41"/>
  </g>
  <g id="LINE-32" data-name="LINE">
    <line class="cls-5" x1="118.67" y1="204.72" x2="118.67" y2="195.41"/>
  </g>
  <g id="LINE-33" data-name="LINE">
    <line class="cls-5" x1="125.66" y1="204.72" x2="125.66" y2="195.41"/>
  </g>
  <g id="LINE-34" data-name="LINE">
    <line class="cls-5" x1="29.81" y1="204.72" x2="60.47" y2="204.72"/>
  </g>
  <g id="LINE-35" data-name="LINE">
    <line class="cls-5" x1="29.81" y1="414.25" x2="60.47" y2="414.25"/>
  </g>
  <g id="LINE-36" data-name="LINE">
    <line class="cls-5" x1="67.46" y1="414.25" x2="118.67" y2="414.25"/>
  </g>
  <g id="LINE-37" data-name="LINE">
    <line class="cls-5" x1="125.66" y1="414.25" x2="157.08" y2="414.25"/>
  </g>
  <g id="LINE-38" data-name="LINE">
    <line class="cls-5" x1="60.47" y1="404.94" x2="67.46" y2="404.94"/>
  </g>
  <g id="LINE-39" data-name="LINE">
    <line class="cls-5" x1="118.67" y1="404.94" x2="125.66" y2="404.94"/>
  </g>
  <g id="LINE-40" data-name="LINE">
    <line class="cls-5" x1="67.46" y1="204.72" x2="118.67" y2="204.72"/>
  </g>
  <g id="LINE-41" data-name="LINE">
    <line class="cls-5" x1="125.66" y1="204.72" x2="157.08" y2="204.72"/>
  </g>
  <g id="LINE-42" data-name="LINE">
    <line class="cls-5" x1="48.05" y1="192.31" x2="79.88" y2="192.31"/>
  </g>
  <g id="LINE-43" data-name="LINE">
    <line class="cls-5" x1="106.25" y1="192.31" x2="138.08" y2="192.31"/>
  </g>
  <g id="LINE-44" data-name="LINE">
    <line class="cls-5" x1="29.81" y1="195.41" x2="48.05" y2="195.41"/>
  </g>
  <g id="LINE-45" data-name="LINE">
    <line class="cls-5" x1="60.47" y1="195.41" x2="67.46" y2="195.41"/>
  </g>
  <g id="LINE-46" data-name="LINE">
    <line class="cls-5" x1="79.88" y1="195.41" x2="106.25" y2="195.41"/>
  </g>
  <g id="LINE-47" data-name="LINE">
    <line class="cls-5" x1="118.67" y1="195.41" x2="125.66" y2="195.41"/>
  </g>
  <g id="LINE-48" data-name="LINE">
    <line class="cls-5" x1="138.08" y1="195.41" x2="157.08" y2="195.41"/>
  </g>
  <g id="LINE-49" data-name="LINE">
    <line class="cls-5" x1="35.24" y1="204.72" x2="35.24" y2="414.25"/>
  </g>
  <g id="LINE-50" data-name="LINE">
    <line class="cls-5" x1="151.64" y1="204.72" x2="151.64" y2="414.25"/>
  </g>
  <g id="LINE-51" data-name="LINE">
    <line class="cls-5" x1="138.08" y1="192.31" x2="138.08" y2="204.72"/>
  </g>
  <g id="LINE-52" data-name="LINE">
    <line class="cls-5" x1="106.25" y1="192.31" x2="106.25" y2="204.72"/>
  </g>
  <g id="LINE-53" data-name="LINE">
    <line class="cls-5" x1="79.88" y1="192.31" x2="79.88" y2="204.72"/>
  </g>
  <g id="LINE-54" data-name="LINE">
    <line class="cls-5" x1="48.05" y1="192.31" x2="48.05" y2="204.72"/>
  </g>
  <g id="LINE-55" data-name="LINE">
    <line class="cls-5" x1="29.81" y1="195.41" x2="29.81" y2="414.25"/>
  </g>
  <g id="LINE-56" data-name="LINE">
    <line class="cls-5" x1="157.08" y1="195.41" x2="157.08" y2="414.25"/>
  </g>
  <g id="LINE-57" data-name="LINE">
    <line class="cls-5" x1="125.66" y1="404.94" x2="125.66" y2="414.25"/>
  </g>
  <g id="LINE-58" data-name="LINE">
    <line class="cls-5" x1="118.67" y1="404.94" x2="118.67" y2="414.25"/>
  </g>
  <g id="LINE-59" data-name="LINE">
    <line class="cls-5" x1="67.46" y1="404.94" x2="67.46" y2="414.25"/>
  </g>
  <g id="LINE-60" data-name="LINE">
    <line class="cls-5" x1="60.47" y1="404.94" x2="60.47" y2="414.25"/>
  </g>
  <g id="LWPOLYLINE-5" data-name="LWPOLYLINE">
    <rect class="cls-5" x="40.02" y="277.33" width="107.86" height="54.19"/>
  </g>
  <g id="MTEXT-6" data-name="MTEXT">
    <text class="cls-3" transform="translate(41.9 309.37)"><tspan x="0" y="0">HOMEBLOCK</tspan></text>
  </g>
  <g id="DIMENSION-6" data-name="DIMENSION">
    <g id="LINE-61" data-name="LINE">
      <line class="cls-5" x1="179.37" y1="202.78" x2="179.37" y2="197.35"/>
    </g>
    <g id="SOLID-11" data-name="SOLID">
      <polygon points="179.04 202.78 179.69 202.78 179.37 204.72 179.37 204.72 179.04 202.78"/>
    </g>
    <g id="SOLID-12" data-name="SOLID">
      <polygon points="179.69 197.35 179.04 197.35 179.37 195.41 179.37 195.41 179.69 197.35"/>
    </g>
    <g id="MTEXT-7" data-name="MTEXT">
      <text class="cls-4" transform="translate(178.88 204.5) rotate(-90)"><tspan x="0" y="0">12</tspan></text>
    </g>
  </g>
  <g id="DIMENSION-7" data-name="DIMENSION">
    <g id="LINE-62" data-name="LINE">
      <line class="cls-5" x1="7.16" y1="202.78" x2="7.16" y2="194.25"/>
    </g>
    <g id="SOLID-13" data-name="SOLID">
      <polygon points="6.84 202.78 7.49 202.78 7.16 204.72 7.16 204.72 6.84 202.78"/>
    </g>
    <g id="SOLID-14" data-name="SOLID">
      <polygon points="7.49 194.25 6.84 194.25 7.16 192.31 7.16 192.31 7.49 194.25"/>
    </g>
    <g id="MTEXT-8" data-name="MTEXT">
      <text class="cls-4" transform="translate(6.58 202.97) rotate(-90)"><tspan x="0" y="0">16</tspan></text>
    </g>
  </g>
  <g id="DIMENSION-8" data-name="DIMENSION">
    <g id="LINE-63" data-name="LINE">
      <line class="cls-5" x1="7.16" y1="206.66" x2="7.16" y2="412.31"/>
    </g>
    <g id="SOLID-15" data-name="SOLID">
      <polygon points="7.49 206.66 6.84 206.66 7.16 204.72 7.16 204.72 7.49 206.66"/>
    </g>
    <g id="SOLID-16" data-name="SOLID">
      <polygon points="6.84 412.31 7.49 412.31 7.16 414.25 7.16 414.25 6.84 412.31"/>
    </g>
    <g id="MTEXT-9" data-name="MTEXT">
      <text class="cls-4" transform="translate(6.58 315.75) rotate(-90)"><tspan x="0" y="0">270</tspan></text>
    </g>
  </g>
  <g id="DIMENSION-9" data-name="DIMENSION">
    <g id="LINE-64" data-name="LINE">
      <line class="cls-5" x1="179.3" y1="406.88" x2="179.3" y2="412.31"/>
    </g>
    <g id="SOLID-17" data-name="SOLID">
      <polygon points="179.63 406.88 178.98 406.88 179.3 404.94 179.3 404.94 179.63 406.88"/>
    </g>
    <g id="SOLID-18" data-name="SOLID">
      <polygon points="178.98 412.31 179.63 412.31 179.3 414.25 179.3 414.25 178.98 412.31"/>
    </g>
    <g id="MTEXT-10" data-name="MTEXT">
      <text class="cls-4" transform="translate(178.82 414.03) rotate(-90)"><tspan x="0" y="0">12</tspan></text>
    </g>
  </g>
  <g id="LINE-65" data-name="LINE">
    <line class="cls-5" x1="29.81" y1="527.42" x2="48.42" y2="527.42"/>
  </g>
  <g id="LINE-66" data-name="LINE">
    <line class="cls-5" x1="80.26" y1="527.42" x2="93.44" y2="527.42"/>
  </g>
  <g id="LINE-67" data-name="LINE">
    <line class="cls-5" x1="29.81" y1="520.44" x2="48.42" y2="520.44"/>
  </g>
  <g id="LINE-68" data-name="LINE">
    <line class="cls-5" x1="80.26" y1="520.44" x2="93.44" y2="520.44"/>
  </g>
  <g id="CIRCLE-3" data-name="CIRCLE">
    <circle class="cls-5" cx="64.34" cy="523.93" r="16.3"/>
  </g>
  <g id="LINE-69" data-name="LINE">
    <line class="cls-5" x1="60.85" y1="553.03" x2="60.85" y2="539.85"/>
  </g>
  <g id="LINE-70" data-name="LINE">
    <line class="cls-5" x1="60.85" y1="508.01" x2="60.85" y2="496.57"/>
  </g>
  <g id="LINE-71" data-name="LINE">
    <line class="cls-5" x1="67.83" y1="553.03" x2="67.83" y2="539.85"/>
  </g>
  <g id="LINE-72" data-name="LINE">
    <line class="cls-5" x1="67.83" y1="508.01" x2="67.83" y2="496.57"/>
  </g>
  <g id="CIRCLE-4" data-name="CIRCLE">
    <circle class="cls-5" cx="122.54" cy="523.93" r="16.3"/>
  </g>
  <g id="LINE-73" data-name="LINE">
    <line class="cls-5" x1="119.05" y1="553.03" x2="119.05" y2="539.85"/>
  </g>
  <g id="LINE-74" data-name="LINE">
    <line class="cls-5" x1="119.05" y1="508.01" x2="119.05" y2="496.57"/>
  </g>
  <g id="LINE-75" data-name="LINE">
    <line class="cls-5" x1="126.04" y1="553.03" x2="126.04" y2="539.85"/>
  </g>
  <g id="LINE-76" data-name="LINE">
    <line class="cls-5" x1="126.04" y1="508.01" x2="126.04" y2="496.57"/>
  </g>
  <g id="LINE-77" data-name="LINE">
    <line class="cls-5" x1="35.24" y1="553.03" x2="151.64" y2="553.03"/>
  </g>
  <g id="LINE-78" data-name="LINE">
    <line class="cls-5" x1="151.64" y1="553.03" x2="151.64" y2="535.18"/>
  </g>
  <g id="LINE-79" data-name="LINE">
    <line class="cls-5" x1="157.08" y1="535.18" x2="157.08" y2="512.68"/>
  </g>
  <g id="LINE-80" data-name="LINE">
    <line class="cls-5" x1="151.64" y1="512.68" x2="151.64" y2="496.57"/>
  </g>
  <g id="LINE-81" data-name="LINE">
    <line class="cls-5" x1="151.64" y1="496.57" x2="35.24" y2="496.57"/>
  </g>
  <g id="LINE-82" data-name="LINE">
    <line class="cls-5" x1="35.24" y1="496.57" x2="35.24" y2="512.68"/>
  </g>
  <g id="LINE-83" data-name="LINE">
    <line class="cls-5" x1="29.81" y1="512.68" x2="29.81" y2="535.18"/>
  </g>
  <g id="LINE-84" data-name="LINE">
    <line class="cls-5" x1="35.24" y1="535.18" x2="35.24" y2="553.03"/>
  </g>
  <g id="LWPOLYLINE-6" data-name="LWPOLYLINE">
    <polygon class="cls-5" points="157.08 520.44 138.46 520.44 157.08 520.44 157.08 520.44"/>
  </g>
  <g id="LWPOLYLINE-7" data-name="LWPOLYLINE">
    <polygon class="cls-5" points="93.44 520.44 106.63 520.44 93.44 520.44 93.44 520.44"/>
  </g>
  <g id="LWPOLYLINE-8" data-name="LWPOLYLINE">
    <polygon class="cls-5" points="157.08 527.42 138.46 527.42 157.08 527.42 157.08 527.42"/>
  </g>
  <g id="LWPOLYLINE-9" data-name="LWPOLYLINE">
    <polygon class="cls-5" points="93.44 527.42 106.63 527.42 93.44 527.42 93.44 527.42"/>
  </g>
  <g id="LINE-85" data-name="LINE">
    <line class="cls-5" x1="157.08" y1="535.18" x2="151.64" y2="535.18"/>
  </g>
  <g id="LINE-86" data-name="LINE">
    <line class="cls-5" x1="35.24" y1="535.18" x2="29.81" y2="535.18"/>
  </g>
  <g id="LINE-87" data-name="LINE">
    <line class="cls-5" x1="157.08" y1="512.68" x2="151.64" y2="512.68"/>
  </g>
  <g id="LINE-88" data-name="LINE">
    <line class="cls-5" x1="35.24" y1="512.68" x2="29.81" y2="512.68"/>
  </g>
  <g id="DIMENSION-10" data-name="DIMENSION">
    <g id="LINE-89" data-name="LINE">
      <line class="cls-5" x1="179.24" y1="514.62" x2="179.24" y2="533.24"/>
    </g>
    <g id="SOLID-19" data-name="SOLID">
      <polygon points="179.57 514.62 178.92 514.62 179.24 512.68 179.24 512.68 179.57 514.62"/>
    </g>
    <g id="SOLID-20" data-name="SOLID">
      <polygon points="178.92 533.24 179.57 533.24 179.24 535.18 179.24 535.18 178.92 533.24"/>
    </g>
    <g id="MTEXT-11" data-name="MTEXT">
      <text class="cls-4" transform="translate(178.67 528.09) rotate(-90)"><tspan x="0" y="0">29</tspan></text>
    </g>
  </g>
  <g id="DIMENSION-11" data-name="DIMENSION">
    <g id="LINE-90" data-name="LINE">
      <line class="cls-5" x1="170.38" y1="525.48" x2="170.38" y2="522.38"/>
    </g>
    <g id="SOLID-21" data-name="SOLID">
      <polygon points="170.06 525.48 170.7 525.48 170.38 527.42 170.38 527.42 170.06 525.48"/>
    </g>
    <g id="SOLID-22" data-name="SOLID">
      <polygon points="170.7 522.38 170.06 522.38 170.38 520.44 170.38 520.44 170.7 522.38"/>
    </g>
    <g id="MTEXT-12" data-name="MTEXT">
      <text class="cls-4" transform="translate(169.8 526.03) rotate(-90)"><tspan x="0" y="0">9</tspan></text>
    </g>
  </g>
  <g id="DIMENSION-12" data-name="DIMENSION">
    <g id="LINE-91" data-name="LINE">
      <line class="cls-5" x1="66.28" y1="576.68" x2="120.6" y2="576.68"/>
    </g>
    <g id="SOLID-23" data-name="SOLID">
      <polygon points="66.28 576.35 66.28 577 64.34 576.68 64.34 576.68 66.28 576.35"/>
    </g>
    <g id="SOLID-24" data-name="SOLID">
      <polygon points="120.6 577 120.6 576.35 122.54 576.68 122.54 576.68 120.6 577"/>
    </g>
    <g id="MTEXT-13" data-name="MTEXT">
      <text class="cls-4" transform="translate(89.2 576.1)"><tspan x="0" y="0">75</tspan></text>
    </g>
  </g>
  <g id="DIMENSION-13" data-name="DIMENSION">
    <g id="LINE-92" data-name="LINE">
      <line class="cls-5" x1="8.35" y1="551.09" x2="8.35" y2="498.51"/>
    </g>
    <g id="SOLID-25" data-name="SOLID">
      <polygon points="8.02 551.09 8.67 551.09 8.35 553.03 8.35 553.03 8.02 551.09"/>
    </g>
    <g id="SOLID-26" data-name="SOLID">
      <polygon points="8.67 498.51 8.02 498.51 8.35 496.57 8.35 496.57 8.67 498.51"/>
    </g>
    <g id="MTEXT-14" data-name="MTEXT">
      <text class="cls-4" transform="translate(6.79 534.32) rotate(-90)"><tspan x="0" y="0">72,75</tspan></text>
    </g>
  </g>
  <g id="DIMENSION-14" data-name="DIMENSION">
    <g id="LINE-93" data-name="LINE">
      <line class="cls-5" x1="21.07" y1="525.87" x2="21.07" y2="551.09"/>
    </g>
    <g id="SOLID-27" data-name="SOLID">
      <polygon points="21.39 525.87 20.74 525.87 21.07 523.93 21.07 523.93 21.39 525.87"/>
    </g>
    <g id="SOLID-28" data-name="SOLID">
      <polygon points="20.74 551.09 21.39 551.09 21.07 553.03 21.07 553.03 20.74 551.09"/>
    </g>
    <g id="MTEXT-15" data-name="MTEXT">
      <text class="cls-4" transform="translate(19.51 545.87) rotate(-90)"><tspan x="0" y="0">37,5</tspan></text>
    </g>
  </g>
  <g id="DIMENSION-15" data-name="DIMENSION">
    <g id="LINE-94" data-name="LINE">
      <line class="cls-5" x1="21.3" y1="521.99" x2="21.3" y2="498.51"/>
    </g>
    <g id="SOLID-29" data-name="SOLID">
      <polygon points="20.97 521.99 21.62 521.99 21.3 523.93 21.3 523.93 20.97 521.99"/>
    </g>
    <g id="SOLID-30" data-name="SOLID">
      <polygon points="21.62 498.51 20.97 498.51 21.3 496.57 21.3 496.57 21.62 498.51"/>
    </g>
    <g id="MTEXT-16" data-name="MTEXT">
      <text class="cls-4" transform="translate(19.74 519.76) rotate(-90)"><tspan x="0" y="0">35,25</tspan></text>
    </g>
  </g>
  <g id="DIMENSION-16" data-name="DIMENSION">
    <g id="LINE-95" data-name="LINE">
      <line class="cls-5" x1="37.18" y1="481.43" x2="149.7" y2="481.43"/>
    </g>
    <g id="SOLID-31" data-name="SOLID">
      <polygon points="37.18 481.11 37.18 481.76 35.24 481.43 35.24 481.43 37.18 481.11"/>
    </g>
    <g id="SOLID-32" data-name="SOLID">
      <polygon points="149.7 481.76 149.7 481.11 151.64 481.43 151.64 481.43 149.7 481.76"/>
    </g>
    <g id="MTEXT-17" data-name="MTEXT">
      <text class="cls-4" transform="translate(86.89 480.86)"><tspan x="0" y="0">150</tspan></text>
    </g>
  </g>
  <g id="DIMENSION-17" data-name="DIMENSION">
    <g id="LINE-96" data-name="LINE">
      <line class="cls-5" x1="153.58" y1="481.43" x2="155.14" y2="481.43"/>
    </g>
    <g id="SOLID-33" data-name="SOLID">
      <polygon points="153.58 481.11 153.58 481.76 151.64 481.43 151.64 481.43 153.58 481.11"/>
    </g>
    <g id="SOLID-34" data-name="SOLID">
      <polygon points="155.14 481.76 155.14 481.11 157.08 481.43 157.08 481.43 155.14 481.76"/>
    </g>
    <g id="MTEXT-18" data-name="MTEXT">
      <text class="cls-4" transform="translate(152.25 480.95)"><tspan x="0" y="0">7</tspan></text>
    </g>
  </g>
  <g id="DIMENSION-18" data-name="DIMENSION">
    <g id="LINE-97" data-name="LINE">
      <line class="cls-5" x1="120.99" y1="492.91" x2="124.1" y2="492.91"/>
    </g>
    <g id="SOLID-35" data-name="SOLID">
      <polygon points="120.99 492.59 120.99 493.23 119.05 492.91 119.05 492.91 120.99 492.59"/>
    </g>
    <g id="SOLID-36" data-name="SOLID">
      <polygon points="124.1 493.23 124.1 492.59 126.04 492.91 126.04 492.91 124.1 493.23"/>
    </g>
    <g id="MTEXT-19" data-name="MTEXT">
      <text class="cls-4" transform="translate(120.44 492.33)"><tspan x="0" y="0">9</tspan></text>
    </g>
  </g>
  <g id="DIMENSION-19" data-name="DIMENSION">
    <g id="LINE-98" data-name="LINE">
      <line class="cls-5" x1="113.9" y1="512.42" x2="132.73" y2="534.1"/>
    </g>
    <g id="SOLID-37" data-name="SOLID">
      <polygon points="114.14 512.21 113.66 512.64 112.63 510.96 112.63 510.96 114.14 512.21"/>
    </g>
    <g id="SOLID-38" data-name="SOLID">
      <polygon points="132.48 534.31 132.97 533.88 134 535.56 134 535.56 132.48 534.31"/>
    </g>
    <g id="MTEXT-20" data-name="MTEXT">
      <text class="cls-4" transform="translate(121.02 519.88) rotate(49.02)"><tspan x="0" y="0">42</tspan></text>
    </g>
  </g>
  <g id="MTEXT-21" data-name="MTEXT">
    <text class="cls-1" transform="translate(27.22 15.99)"><tspan class="cls-6" x="0" y="0">T</tspan><tspan x="11.05" y="0">OPO DE 15 cm</tspan></text>
  </g>
  <g id="LINE-99" data-name="LINE">
    <line class="cls-5" x1="281.16" y1="204.72" x2="281.16" y2="195.41"/>
  </g>
  <g id="LINE-100" data-name="LINE">
    <line class="cls-5" x1="288.14" y1="204.72" x2="288.14" y2="195.41"/>
  </g>
  <g id="LINE-101" data-name="LINE">
    <line class="cls-5" x1="255.93" y1="204.72" x2="281.16" y2="204.72"/>
  </g>
  <g id="LINE-102" data-name="LINE">
    <line class="cls-5" x1="255.93" y1="414.25" x2="281.16" y2="414.25"/>
  </g>
  <g id="LINE-103" data-name="LINE">
    <line class="cls-5" x1="288.14" y1="414.25" x2="312.38" y2="414.25"/>
  </g>
  <g id="LINE-104" data-name="LINE">
    <line class="cls-5" x1="281.16" y1="404.94" x2="288.14" y2="404.94"/>
  </g>
  <g id="LINE-105" data-name="LINE">
    <line class="cls-5" x1="288.14" y1="204.72" x2="312.38" y2="204.72"/>
  </g>
  <g id="LINE-106" data-name="LINE">
    <line class="cls-5" x1="268.73" y1="192.31" x2="300.57" y2="192.31"/>
  </g>
  <g id="LINE-107" data-name="LINE">
    <line class="cls-5" x1="255.93" y1="195.41" x2="268.73" y2="195.41"/>
  </g>
  <g id="LINE-108" data-name="LINE">
    <line class="cls-5" x1="281.16" y1="195.41" x2="288.14" y2="195.41"/>
  </g>
  <g id="LINE-109" data-name="LINE">
    <line class="cls-5" x1="300.57" y1="195.41" x2="312.38" y2="195.41"/>
  </g>
  <g id="LINE-110" data-name="LINE">
    <line class="cls-5" x1="300.57" y1="192.31" x2="300.57" y2="204.72"/>
  </g>
  <g id="LINE-111" data-name="LINE">
    <line class="cls-5" x1="268.73" y1="192.31" x2="268.73" y2="204.72"/>
  </g>
  <g id="LINE-112" data-name="LINE">
    <line class="cls-5" x1="255.93" y1="195.41" x2="255.93" y2="414.25"/>
  </g>
  <g id="LINE-113" data-name="LINE">
    <line class="cls-5" x1="288.14" y1="404.94" x2="288.14" y2="414.25"/>
  </g>
  <g id="LINE-114" data-name="LINE">
    <line class="cls-5" x1="281.16" y1="404.94" x2="281.16" y2="414.25"/>
  </g>
  <g id="LINE-115" data-name="LINE">
    <line class="cls-5" x1="312.38" y1="204.72" x2="312.38" y2="414.25"/>
  </g>
  <g id="LINE-116" data-name="LINE">
    <line class="cls-5" x1="312.38" y1="204.72" x2="312.38" y2="195.41"/>
  </g>
  <g id="LINE-117" data-name="LINE">
    <line class="cls-5" x1="296.28" y1="204.72" x2="296.28" y2="414.25"/>
  </g>
  <g id="LINE-118" data-name="LINE">
    <line class="cls-5" x1="273.78" y1="204.72" x2="273.78" y2="414.25"/>
  </g>
  <g id="DIMENSION-20" data-name="DIMENSION">
    <g id="LINE-119" data-name="LINE">
      <line class="cls-5" x1="31.75" y1="481.43" x2="33.3" y2="481.43"/>
    </g>
    <g id="SOLID-39" data-name="SOLID">
      <polygon points="31.75 481.11 31.75 481.76 29.81 481.43 29.81 481.43 31.75 481.11"/>
    </g>
    <g id="SOLID-40" data-name="SOLID">
      <polygon points="33.3 481.76 33.3 481.11 35.24 481.43 35.24 481.43 33.3 481.76"/>
    </g>
    <g id="MTEXT-22" data-name="MTEXT">
      <text class="cls-4" transform="translate(30.41 480.95)"><tspan x="0" y="0">7</tspan></text>
    </g>
  </g>
</svg>