<?xml version="1.0" encoding="UTF-8"?>
<svg id="Camada_1" data-name="Camada 1" xmlns="http://www.w3.org/2000/svg" viewBox="0 0 493.25 472.75">
  <defs>
    <style>
      .cls-1 {
        font-size: 9.13px;
      }

      .cls-1, .cls-2 {
        font-family: ArialMT, Arial;
      }

      .cls-2 {
        font-size: 22.18px;
      }

      .cls-3 {
        letter-spacing: -.07em;
      }

      .cls-4 {
        fill: none;
        stroke: #000;
        stroke-linecap: round;
        stroke-linejoin: round;
        stroke-width: .25px;
      }
    </style>
  </defs>
  <g id="LINE">
    <line class="cls-4" x1="29.04" y1="111.12" x2="33.2" y2="111.12"/>
  </g>
  <g id="LINE-2" data-name="LINE">
    <line class="cls-4" x1="289.13" y1="111.12" x2="293.28" y2="111.12"/>
  </g>
  <g id="LINE-3" data-name="LINE">
    <line class="cls-4" x1="90.53" y1="143.55" x2="91.9" y2="143.55"/>
  </g>
  <g id="LINE-4" data-name="LINE">
    <line class="cls-4" x1="119.15" y1="143.55" x2="120.52" y2="143.55"/>
  </g>
  <g id="LINE-5" data-name="LINE">
    <line class="cls-4" x1="62.95" y1="323.62" x2="259.38" y2="323.62"/>
  </g>
  <g id="LINE-6" data-name="LINE">
    <line class="cls-4" x1="29.04" y1="111.12" x2="29.04" y2="355.96"/>
  </g>
  <g id="LINE-7" data-name="LINE">
    <line class="cls-4" x1="33.2" y1="111.12" x2="33.2" y2="355.96"/>
  </g>
  <g id="LINE-8" data-name="LINE">
    <line class="cls-4" x1="62.95" y1="251.56" x2="62.95" y2="288.62"/>
  </g>
  <g id="LINE-9" data-name="LINE">
    <line class="cls-4" x1="293.28" y1="111.12" x2="293.28" y2="355.96"/>
  </g>
  <g id="LINE-10" data-name="LINE">
    <line class="cls-4" x1="289.13" y1="111.12" x2="289.13" y2="355.96"/>
  </g>
  <g id="LINE-11" data-name="LINE">
    <line class="cls-4" x1="259.38" y1="251.56" x2="259.38" y2="288.62"/>
  </g>
  <g id="LINE-12" data-name="LINE">
    <line class="cls-4" x1="62.95" y1="323.62" x2="33.2" y2="348.57"/>
  </g>
  <g id="LINE-13" data-name="LINE">
    <line class="cls-4" x1="259.38" y1="323.62" x2="289.13" y2="348.57"/>
  </g>
  <g id="ARC">
    <path class="cls-4" d="M91.9,143.55c0,3.57,2.9,6.47,6.47,6.47s6.47-2.9,6.47-6.47"/>
  </g>
  <g id="LINE-14" data-name="LINE">
    <line class="cls-4" x1="29.04" y1="355.96" x2="33.2" y2="355.96"/>
  </g>
  <g id="LINE-15" data-name="LINE">
    <line class="cls-4" x1="289.13" y1="355.96" x2="293.28" y2="355.96"/>
  </g>
  <g id="LINE-16" data-name="LINE">
    <line class="cls-4" x1="64.8" y1="297.06" x2="257.53" y2="297.06"/>
  </g>
  <g id="LINE-17" data-name="LINE">
    <line class="cls-4" x1="64.8" y1="290.46" x2="159.15" y2="290.46"/>
  </g>
  <g id="LINE-18" data-name="LINE">
    <line class="cls-4" x1="163.03" y1="290.46" x2="257.53" y2="290.46"/>
  </g>
  <g id="LINE-19" data-name="LINE">
    <line class="cls-4" x1="64.8" y1="249.71" x2="155.49" y2="249.71"/>
  </g>
  <g id="LINE-20" data-name="LINE">
    <line class="cls-4" x1="166.84" y1="249.71" x2="257.53" y2="249.71"/>
  </g>
  <g id="LINE-21" data-name="LINE">
    <line class="cls-4" x1="64.8" y1="243.5" x2="155.49" y2="243.5"/>
  </g>
  <g id="LINE-22" data-name="LINE">
    <line class="cls-4" x1="166.84" y1="243.5" x2="257.53" y2="243.5"/>
  </g>
  <g id="LINE-23" data-name="LINE">
    <line class="cls-4" x1="64.8" y1="157.35" x2="257.53" y2="157.35"/>
  </g>
  <g id="LINE-24" data-name="LINE">
    <line class="cls-4" x1="64.8" y1="194.22" x2="257.53" y2="194.22"/>
  </g>
  <g id="LINE-25" data-name="LINE">
    <line class="cls-4" x1="64.8" y1="200.42" x2="159.15" y2="200.42"/>
  </g>
  <g id="LINE-26" data-name="LINE">
    <line class="cls-4" x1="163.03" y1="200.42" x2="257.53" y2="200.42"/>
  </g>
  <g id="ARC-2" data-name="ARC">
    <path class="cls-4" d="M155.49,249.71c1.71,3.13,5.64,4.28,8.78,2.57,1.08-.59,1.98-1.48,2.57-2.57"/>
  </g>
  <g id="ARC-3" data-name="ARC">
    <path class="cls-4" d="M166.84,243.5c-1.71-3.13-5.64-4.28-8.78-2.57-1.08.59-1.98,1.48-2.57,2.57"/>
  </g>
  <g id="LINE-27" data-name="LINE">
    <line class="cls-4" x1="64.8" y1="315.69" x2="257.53" y2="315.69"/>
  </g>
  <g id="LINE-28" data-name="LINE">
    <line class="cls-4" x1="159.15" y1="200.42" x2="159.15" y2="240.46"/>
  </g>
  <g id="LINE-29" data-name="LINE">
    <line class="cls-4" x1="159.15" y1="252.76" x2="159.15" y2="290.46"/>
  </g>
  <g id="LINE-30" data-name="LINE">
    <line class="cls-4" x1="163.03" y1="200.42" x2="163.03" y2="240.42"/>
  </g>
  <g id="LINE-31" data-name="LINE">
    <line class="cls-4" x1="163.03" y1="252.8" x2="163.03" y2="290.46"/>
  </g>
  <g id="ARC-4" data-name="ARC">
    <path class="cls-4" d="M64.8,157.35c-1.02,0-1.85.83-1.85,1.85"/>
  </g>
  <g id="ARC-5" data-name="ARC">
    <path class="cls-4" d="M259.38,159.19c0-1.02-.83-1.85-1.85-1.85"/>
  </g>
  <g id="ARC-6" data-name="ARC">
    <path class="cls-4" d="M62.95,313.84c0,1.02.83,1.85,1.85,1.85"/>
  </g>
  <g id="ARC-7" data-name="ARC">
    <path class="cls-4" d="M257.53,315.69c1.02,0,1.85-.83,1.85-1.85"/>
  </g>
  <g id="ARC-8" data-name="ARC">
    <path class="cls-4" d="M257.53,290.46c1.02,0,1.85-.83,1.85-1.85"/>
  </g>
  <g id="ARC-9" data-name="ARC">
    <path class="cls-4" d="M259.38,251.56c0-1.02-.83-1.85-1.85-1.85"/>
  </g>
  <g id="ARC-10" data-name="ARC">
    <path class="cls-4" d="M64.8,249.71c-1.02,0-1.85.83-1.85,1.85"/>
  </g>
  <g id="ARC-11" data-name="ARC">
    <path class="cls-4" d="M62.95,288.62c0,1.02.83,1.85,1.85,1.85"/>
  </g>
  <g id="LINE-32" data-name="LINE">
    <line class="cls-4" x1="259.38" y1="298.91" x2="259.38" y2="313.84"/>
  </g>
  <g id="LINE-33" data-name="LINE">
    <line class="cls-4" x1="62.95" y1="298.91" x2="62.95" y2="313.84"/>
  </g>
  <g id="ARC-12" data-name="ARC">
    <path class="cls-4" d="M64.8,297.06c-1.02,0-1.85.83-1.85,1.85"/>
  </g>
  <g id="ARC-13" data-name="ARC">
    <path class="cls-4" d="M259.38,298.91c0-1.02-.83-1.85-1.85-1.85"/>
  </g>
  <g id="LINE-34" data-name="LINE">
    <line class="cls-4" x1="62.95" y1="159.19" x2="62.95" y2="192.37"/>
  </g>
  <g id="LINE-35" data-name="LINE">
    <line class="cls-4" x1="259.38" y1="159.19" x2="259.38" y2="192.37"/>
  </g>
  <g id="ARC-14" data-name="ARC">
    <path class="cls-4" d="M257.53,243.5c1.02,0,1.85-.83,1.85-1.85"/>
  </g>
  <g id="ARC-15" data-name="ARC">
    <path class="cls-4" d="M62.95,241.66c0,1.02.83,1.85,1.85,1.85"/>
  </g>
  <g id="ARC-16" data-name="ARC">
    <path class="cls-4" d="M62.95,192.37c0,1.02.83,1.85,1.85,1.85"/>
  </g>
  <g id="ARC-17" data-name="ARC">
    <path class="cls-4" d="M257.53,194.22c1.02,0,1.85-.83,1.85-1.85"/>
  </g>
  <g id="LINE-36" data-name="LINE">
    <line class="cls-4" x1="259.38" y1="202.27" x2="259.38" y2="241.66"/>
  </g>
  <g id="LINE-37" data-name="LINE">
    <line class="cls-4" x1="62.95" y1="202.27" x2="62.95" y2="241.66"/>
  </g>
  <g id="ARC-18" data-name="ARC">
    <path class="cls-4" d="M64.8,200.42c-1.02,0-1.85.83-1.85,1.85"/>
  </g>
  <g id="ARC-19" data-name="ARC">
    <path class="cls-4" d="M259.38,202.27c0-1.02-.83-1.85-1.85-1.85"/>
  </g>
  <g id="LINE-38" data-name="LINE">
    <line class="cls-4" x1="259.38" y1="192.37" x2="259.38" y2="202.27"/>
  </g>
  <g id="LINE-39" data-name="LINE">
    <line class="cls-4" x1="62.95" y1="202.27" x2="62.95" y2="192.37"/>
  </g>
  <g id="LINE-40" data-name="LINE">
    <line class="cls-4" x1="259.38" y1="298.91" x2="259.38" y2="288.62"/>
  </g>
  <g id="LINE-41" data-name="LINE">
    <line class="cls-4" x1="62.95" y1="298.91" x2="62.95" y2="288.62"/>
  </g>
  <g id="ARC-20" data-name="ARC">
    <path class="cls-4" d="M77.6,143.55c0,3.57,2.9,6.47,6.47,6.47s6.47-2.9,6.47-6.47"/>
  </g>
  <g id="ARC-21" data-name="ARC">
    <path class="cls-4" d="M63.29,143.55c0,3.57,2.9,6.47,6.47,6.47s6.47-2.9,6.47-6.47"/>
  </g>
  <g id="ARC-22" data-name="ARC">
    <path class="cls-4" d="M120.52,143.55c0,3.57,2.9,6.47,6.47,6.47s6.47-2.9,6.47-6.47"/>
  </g>
  <g id="ARC-23" data-name="ARC">
    <path class="cls-4" d="M106.21,143.55c0,3.57,2.9,6.47,6.47,6.47s6.47-2.9,6.47-6.47"/>
  </g>
  <g id="LINE-42" data-name="LINE">
    <line class="cls-4" x1="259.38" y1="143.55" x2="289.13" y2="128.44"/>
  </g>
  <g id="LINE-43" data-name="LINE">
    <line class="cls-4" x1="63.29" y1="143.55" x2="33.2" y2="128.27"/>
  </g>
  <g id="DIMENSION">
    <g id="LINE-44" data-name="LINE">
      <line class="cls-4" x1="12.29" y1="113.43" x2="12.29" y2="141.24"/>
    </g>
    <g id="SOLID">
      <polygon points="12.67 113.43 11.9 113.43 12.29 111.12 12.29 111.12 12.67 113.43"/>
    </g>
    <g id="SOLID-2" data-name="SOLID">
      <polygon points="11.9 141.24 12.67 141.24 12.29 143.55 12.29 143.55 11.9 141.24"/>
    </g>
    <g id="MTEXT">
      <text class="cls-1" transform="translate(10.44 135.49) rotate(-90)"><tspan x="0" y="0">35,1</tspan></text>
    </g>
  </g>
  <g id="DIMENSION-2" data-name="DIMENSION">
    <g id="LINE-45" data-name="LINE">
      <line class="cls-4" x1="35.51" y1="100.27" x2="51.06" y2="100.27"/>
    </g>
    <g id="LINE-46" data-name="LINE">
      <line class="cls-4" x1="29.04" y1="100.27" x2="33.2" y2="100.27"/>
    </g>
    <g id="LINE-47" data-name="LINE">
      <line class="cls-4" x1="26.73" y1="100.27" x2="24.42" y2="100.27"/>
    </g>
    <g id="SOLID-3" data-name="SOLID">
      <polygon points="26.73 100.65 26.73 99.88 29.04 100.27 29.04 100.27 26.73 100.65"/>
    </g>
    <g id="SOLID-4" data-name="SOLID">
      <polygon points="35.51 99.88 35.51 100.65 33.2 100.27 33.2 100.27 35.51 99.88"/>
    </g>
    <g id="MTEXT-2" data-name="MTEXT">
      <text class="cls-1" transform="translate(38.29 98.41)"><tspan x="0" y="0">4,5</tspan></text>
    </g>
  </g>
  <g id="DIMENSION-3" data-name="DIMENSION">
    <g id="LINE-48" data-name="LINE">
      <line class="cls-4" x1="139.81" y1="186.28" x2="117.38" y2="150.96"/>
    </g>
    <g id="MTEXT-3" data-name="MTEXT">
      <text class="cls-1" transform="translate(123.61 159.49) rotate(57.59)"><tspan x="0" y="0">13 x R7</tspan></text>
    </g>
    <g id="LINE-49" data-name="LINE">
      <line class="cls-4" x1="112.68" y1="143.55" x2="116.14" y2="149.01"/>
    </g>
    <g id="SOLID-5" data-name="SOLID">
      <polygon points="117.71 150.75 117.06 151.17 116.14 149.01 116.14 149.01 117.71 150.75"/>
    </g>
  </g>
  <g id="DIMENSION-4" data-name="DIMENSION">
    <g id="LINE-50" data-name="LINE">
      <line class="cls-4" x1="31.35" y1="77.73" x2="290.97" y2="77.73"/>
    </g>
    <g id="SOLID-6" data-name="SOLID">
      <polygon points="31.35 77.35 31.35 78.12 29.04 77.73 29.04 77.73 31.35 77.35"/>
    </g>
    <g id="SOLID-7" data-name="SOLID">
      <polygon points="290.97 78.12 290.97 77.35 293.28 77.73 293.28 77.73 290.97 78.12"/>
    </g>
    <g id="MTEXT-4" data-name="MTEXT">
      <text class="cls-1" transform="translate(153.7 77.05)"><tspan x="0" y="0">286</tspan></text>
    </g>
  </g>
  <g id="DIMENSION-5" data-name="DIMENSION">
    <g id="LINE-51" data-name="LINE">
      <line class="cls-4" x1="286.82" y1="101.39" x2="271.27" y2="101.39"/>
    </g>
    <g id="LINE-52" data-name="LINE">
      <line class="cls-4" x1="293.28" y1="101.39" x2="289.13" y2="101.39"/>
    </g>
    <g id="LINE-53" data-name="LINE">
      <line class="cls-4" x1="295.59" y1="101.39" x2="297.9" y2="101.39"/>
    </g>
    <g id="SOLID-8" data-name="SOLID">
      <polygon points="295.59 101.01 295.59 101.78 293.28 101.39 293.28 101.39 295.59 101.01"/>
    </g>
    <g id="SOLID-9" data-name="SOLID">
      <polygon points="286.82 101.78 286.82 101.01 289.13 101.39 289.13 101.39 286.82 101.78"/>
    </g>
    <g id="MTEXT-5" data-name="MTEXT">
      <text class="cls-1" transform="translate(271.73 99.55)"><tspan x="0" y="0">4,5</tspan></text>
    </g>
  </g>
  <g id="DIMENSION-6" data-name="DIMENSION">
    <g id="LINE-54" data-name="LINE">
      <line class="cls-4" x1="60.64" y1="375.41" x2="31.35" y2="375.41"/>
    </g>
    <g id="SOLID-10" data-name="SOLID">
      <polygon points="60.64 375.79 60.64 375.02 62.95 375.41 62.95 375.41 60.64 375.79"/>
    </g>
    <g id="SOLID-11" data-name="SOLID">
      <polygon points="31.35 375.02 31.35 375.79 29.04 375.41 29.04 375.41 31.35 375.02"/>
    </g>
    <g id="MTEXT-6" data-name="MTEXT">
      <text class="cls-1" transform="translate(37.22 373.56)"><tspan x="0" y="0">36,7</tspan></text>
    </g>
  </g>
  <g id="DIMENSION-7" data-name="DIMENSION">
    <g id="LINE-55" data-name="LINE">
      <line class="cls-4" x1="8.53" y1="325.93" x2="8.53" y2="353.65"/>
    </g>
    <g id="SOLID-12" data-name="SOLID">
      <polygon points="8.91 325.93 8.14 325.93 8.53 323.62 8.53 323.62 8.91 325.93"/>
    </g>
    <g id="SOLID-13" data-name="SOLID">
      <polygon points="8.14 353.65 8.91 353.65 8.53 355.96 8.53 355.96 8.14 353.65"/>
    </g>
    <g id="MTEXT-7" data-name="MTEXT">
      <text class="cls-1" transform="translate(7.84 344.81) rotate(-90)"><tspan x="0" y="0">35</tspan></text>
    </g>
  </g>
  <g id="MTEXT-8" data-name="MTEXT">
    <text class="cls-2" transform="translate(79.51 19.04)"><tspan x="0" y="0">ES</tspan><tspan class="cls-3" x="29.59" y="0">P</tspan><tspan x="42.74" y="0">AÇADOR DE 22 cm</tspan></text>
  </g>
  <g id="LINE-56" data-name="LINE">
    <line class="cls-4" x1="468.18" y1="111.12" x2="490.35" y2="111.12"/>
  </g>
  <g id="LINE-57" data-name="LINE">
    <line class="cls-4" x1="468.18" y1="355.96" x2="490.35" y2="355.96"/>
  </g>
  <g id="LINE-58" data-name="LINE">
    <line class="cls-4" x1="465.41" y1="113.89" x2="465.41" y2="353.19"/>
  </g>
  <g id="LINE-59" data-name="LINE">
    <line class="cls-4" x1="493.13" y1="113.89" x2="493.13" y2="353.19"/>
  </g>
  <g id="ARC-24" data-name="ARC">
    <path class="cls-4" d="M468.18,111.12c-1.53,0-2.77,1.24-2.77,2.77"/>
  </g>
  <g id="ARC-25" data-name="ARC">
    <path class="cls-4" d="M493.13,113.89c0-1.53-1.24-2.77-2.77-2.77"/>
  </g>
  <g id="ARC-26" data-name="ARC">
    <path class="cls-4" d="M465.41,353.19c0,1.53,1.24,2.77,2.77,2.77"/>
  </g>
  <g id="ARC-27" data-name="ARC">
    <path class="cls-4" d="M490.35,355.96c1.53,0,2.77-1.24,2.77-2.77"/>
  </g>
  <g id="DIMENSION-8" data-name="DIMENSION">
    <g id="LINE-60" data-name="LINE">
      <line class="cls-4" x1="467.72" y1="97.86" x2="490.82" y2="97.86"/>
    </g>
    <g id="SOLID-14" data-name="SOLID">
      <polygon points="467.72 97.47 467.72 98.24 465.41 97.86 465.41 97.86 467.72 97.47"/>
    </g>
    <g id="SOLID-15" data-name="SOLID">
      <polygon points="490.82 98.24 490.82 97.47 493.13 97.86 493.13 97.86 490.82 98.24"/>
    </g>
    <g id="MTEXT-9" data-name="MTEXT">
      <text class="cls-1" transform="translate(474.27 97.17)"><tspan x="0" y="0">30</tspan></text>
    </g>
  </g>
  <g id="DIMENSION-9" data-name="DIMENSION">
    <g id="LINE-61" data-name="LINE">
      <line class="cls-4" x1="453.27" y1="113.43" x2="453.27" y2="353.65"/>
    </g>
    <g id="SOLID-16" data-name="SOLID">
      <polygon points="453.66 113.43 452.89 113.43 453.27 111.12 453.27 111.12 453.66 113.43"/>
    </g>
    <g id="SOLID-17" data-name="SOLID">
      <polygon points="452.89 353.65 453.66 353.65 453.27 355.96 453.27 355.96 452.89 353.65"/>
    </g>
    <g id="MTEXT-10" data-name="MTEXT">
      <text class="cls-1" transform="translate(452.6 241.03) rotate(-90)"><tspan x="0" y="0">265</tspan></text>
    </g>
  </g>
  <g id="LINE-62" data-name="LINE">
    <line class="cls-4" x1="33.2" y1="446.7" x2="289.13" y2="446.7"/>
  </g>
  <g id="LINE-63" data-name="LINE">
    <line class="cls-4" x1="33.2" y1="442.54" x2="289.13" y2="442.54"/>
  </g>
  <g id="LINE-64" data-name="LINE">
    <line class="cls-4" x1="35.31" y1="442.54" x2="35.31" y2="446.7"/>
  </g>
  <g id="LINE-65" data-name="LINE">
    <line class="cls-4" x1="29.04" y1="442.54" x2="29.04" y2="446.7"/>
  </g>
  <g id="LINE-66" data-name="LINE">
    <line class="cls-4" x1="293.28" y1="458.48" x2="293.28" y2="430.76"/>
  </g>
  <g id="LINE-67" data-name="LINE">
    <line class="cls-4" x1="293.28" y1="458.48" x2="289.13" y2="458.48"/>
  </g>
  <g id="LINE-68" data-name="LINE">
    <line class="cls-4" x1="289.13" y1="458.48" x2="289.13" y2="430.76"/>
  </g>
  <g id="LINE-69" data-name="LINE">
    <line class="cls-4" x1="289.13" y1="430.76" x2="293.28" y2="430.76"/>
  </g>
  <g id="LINE-70" data-name="LINE">
    <line class="cls-4" x1="33.2" y1="444.62" x2="33.2" y2="430.76"/>
  </g>
  <g id="LINE-71" data-name="LINE">
    <line class="cls-4" x1="33.2" y1="444.62" x2="33.2" y2="458.48"/>
  </g>
  <g id="LINE-72" data-name="LINE">
    <line class="cls-4" x1="33.2" y1="458.48" x2="29.04" y2="458.48"/>
  </g>
  <g id="LINE-73" data-name="LINE">
    <line class="cls-4" x1="29.04" y1="458.48" x2="29.04" y2="430.76"/>
  </g>
  <g id="LINE-74" data-name="LINE">
    <line class="cls-4" x1="29.04" y1="430.76" x2="33.2" y2="430.76"/>
  </g>
  <g id="LINE-75" data-name="LINE">
    <line class="cls-4" x1="62.95" y1="442.54" x2="62.95" y2="446.7"/>
  </g>
  <g id="LINE-76" data-name="LINE">
    <line class="cls-4" x1="194.7" y1="442.54" x2="194.7" y2="446.7"/>
  </g>
  <g id="LINE-77" data-name="LINE">
    <line class="cls-4" x1="106.85" y1="442.54" x2="106.85" y2="446.7"/>
  </g>
  <g id="LINE-78" data-name="LINE">
    <line class="cls-4" x1="149.77" y1="442.54" x2="149.77" y2="446.7"/>
  </g>
  <g id="LINE-79" data-name="LINE">
    <line class="cls-4" x1="164.07" y1="442.54" x2="164.07" y2="446.7"/>
  </g>
  <g id="LINE-80" data-name="LINE">
    <line class="cls-4" x1="178.38" y1="442.54" x2="178.38" y2="446.7"/>
  </g>
  <g id="LINE-81" data-name="LINE">
    <line class="cls-4" x1="135.47" y1="442.54" x2="135.47" y2="446.7"/>
  </g>
  <g id="LINE-82" data-name="LINE">
    <line class="cls-4" x1="121.17" y1="442.54" x2="121.17" y2="446.7"/>
  </g>
  <g id="LINE-83" data-name="LINE">
    <line class="cls-4" x1="92.55" y1="442.54" x2="92.55" y2="446.7"/>
  </g>
  <g id="LINE-84" data-name="LINE">
    <line class="cls-4" x1="78.24" y1="442.54" x2="78.24" y2="446.7"/>
  </g>
  <g id="LINE-85" data-name="LINE">
    <line class="cls-4" x1="79.61" y1="442.54" x2="79.61" y2="446.7"/>
  </g>
  <g id="LINE-86" data-name="LINE">
    <line class="cls-4" x1="93.91" y1="442.54" x2="93.91" y2="446.7"/>
  </g>
  <g id="LINE-87" data-name="LINE">
    <line class="cls-4" x1="108.21" y1="442.54" x2="108.21" y2="446.7"/>
  </g>
  <g id="LINE-88" data-name="LINE">
    <line class="cls-4" x1="122.53" y1="442.54" x2="122.53" y2="446.7"/>
  </g>
  <g id="LINE-89" data-name="LINE">
    <line class="cls-4" x1="136.83" y1="442.54" x2="136.83" y2="446.7"/>
  </g>
  <g id="LINE-90" data-name="LINE">
    <line class="cls-4" x1="151.13" y1="442.54" x2="151.13" y2="446.7"/>
  </g>
  <g id="LINE-91" data-name="LINE">
    <line class="cls-4" x1="165.44" y1="442.54" x2="165.44" y2="446.7"/>
  </g>
  <g id="LINE-92" data-name="LINE">
    <line class="cls-4" x1="179.74" y1="442.54" x2="179.74" y2="446.7"/>
  </g>
  <g id="LINE-93" data-name="LINE">
    <line class="cls-4" x1="260.74" y1="143.55" x2="260.74" y2="324.77"/>
  </g>
  <g id="LINE-94" data-name="LINE">
    <line class="cls-4" x1="196.06" y1="442.54" x2="196.06" y2="446.7"/>
  </g>
  <g id="LINE-95" data-name="LINE">
    <line class="cls-4" x1="64.31" y1="442.54" x2="64.31" y2="446.7"/>
  </g>
  <g id="LINE-96" data-name="LINE">
    <line class="cls-4" x1="287.1" y1="442.54" x2="287.1" y2="446.7"/>
  </g>
  <g id="LINE-97" data-name="LINE">
    <line class="cls-4" x1="29.04" y1="433.21" x2="33.2" y2="433.21"/>
  </g>
  <g id="LINE-98" data-name="LINE">
    <line class="cls-4" x1="289.13" y1="433.21" x2="293.28" y2="433.21"/>
  </g>
  <g id="LINE-99" data-name="LINE">
    <line class="cls-4" x1="29.04" y1="456.1" x2="33.2" y2="456.1"/>
  </g>
  <g id="LINE-100" data-name="LINE">
    <line class="cls-4" x1="289.13" y1="456.1" x2="293.28" y2="456.1"/>
  </g>
  <g id="DIMENSION-10" data-name="DIMENSION">
    <g id="LINE-101" data-name="LINE">
      <line class="cls-4" x1="295.59" y1="471.63" x2="311.14" y2="471.63"/>
    </g>
    <g id="LINE-102" data-name="LINE">
      <line class="cls-4" x1="289.13" y1="471.63" x2="293.28" y2="471.63"/>
    </g>
    <g id="LINE-103" data-name="LINE">
      <line class="cls-4" x1="286.82" y1="471.63" x2="284.51" y2="471.63"/>
    </g>
    <g id="SOLID-18" data-name="SOLID">
      <polygon points="286.82 472.02 286.82 471.25 289.13 471.63 289.13 471.63 286.82 472.02"/>
    </g>
    <g id="SOLID-19" data-name="SOLID">
      <polygon points="295.59 471.25 295.59 472.02 293.28 471.63 293.28 471.63 295.59 471.25"/>
    </g>
    <g id="MTEXT-11" data-name="MTEXT">
      <text class="cls-1" transform="translate(298.37 469.78)"><tspan x="0" y="0">4,5</tspan></text>
    </g>
  </g>
  <g id="DIMENSION-11" data-name="DIMENSION">
    <g id="LINE-104" data-name="LINE">
      <line class="cls-4" x1="35.51" y1="470.59" x2="51.06" y2="470.59"/>
    </g>
    <g id="LINE-105" data-name="LINE">
      <line class="cls-4" x1="29.04" y1="470.59" x2="33.2" y2="470.59"/>
    </g>
    <g id="LINE-106" data-name="LINE">
      <line class="cls-4" x1="26.73" y1="470.59" x2="24.42" y2="470.59"/>
    </g>
    <g id="SOLID-20" data-name="SOLID">
      <polygon points="26.73 470.98 26.73 470.21 29.04 470.59 29.04 470.59 26.73 470.98"/>
    </g>
    <g id="SOLID-21" data-name="SOLID">
      <polygon points="35.51 470.21 35.51 470.98 33.2 470.59 33.2 470.59 35.51 470.21"/>
    </g>
    <g id="MTEXT-12" data-name="MTEXT">
      <text class="cls-1" transform="translate(38.29 468.74)"><tspan x="0" y="0">4,5</tspan></text>
    </g>
  </g>
  <g id="DIMENSION-12" data-name="DIMENSION">
    <g id="LINE-107" data-name="LINE">
      <line class="cls-4" x1="20.77" y1="440.23" x2="20.77" y2="424.68"/>
    </g>
    <g id="LINE-108" data-name="LINE">
      <line class="cls-4" x1="20.77" y1="446.7" x2="20.77" y2="442.54"/>
    </g>
    <g id="LINE-109" data-name="LINE">
      <line class="cls-4" x1="20.77" y1="449.01" x2="20.77" y2="451.32"/>
    </g>
    <g id="SOLID-22" data-name="SOLID">
      <polygon points="21.15 449.01 20.38 449.01 20.77 446.7 20.77 446.7 21.15 449.01"/>
    </g>
    <g id="SOLID-23" data-name="SOLID">
      <polygon points="20.38 440.23 21.15 440.23 20.77 442.54 20.77 442.54 20.38 440.23"/>
    </g>
    <g id="MTEXT-13" data-name="MTEXT">
      <text class="cls-1" transform="translate(18.92 437.44) rotate(-90)"><tspan x="0" y="0">4,5</tspan></text>
    </g>
  </g>
  <g id="LINE-110" data-name="LINE">
    <line class="cls-4" x1="133.45" y1="143.55" x2="134.83" y2="143.55"/>
  </g>
  <g id="ARC-28" data-name="ARC">
    <path class="cls-4" d="M234.98,143.55c0,3.57,2.9,6.47,6.47,6.47s6.47-2.9,6.47-6.47"/>
  </g>
  <g id="ARC-29" data-name="ARC">
    <path class="cls-4" d="M134.83,143.55c0,3.57,2.9,6.47,6.47,6.47s6.47-2.9,6.47-6.47"/>
  </g>
  <g id="LINE-111" data-name="LINE">
    <line class="cls-4" x1="104.84" y1="143.55" x2="106.21" y2="143.55"/>
  </g>
  <g id="LINE-112" data-name="LINE">
    <line class="cls-4" x1="76.22" y1="143.55" x2="77.6" y2="143.55"/>
  </g>
  <g id="LINE-113" data-name="LINE">
    <line class="cls-4" x1="147.76" y1="143.55" x2="149.13" y2="143.55"/>
  </g>
  <g id="ARC-30" data-name="ARC">
    <path class="cls-4" d="M149.13,143.55c0,3.57,2.9,6.47,6.47,6.47s6.47-2.9,6.47-6.47"/>
  </g>
  <g id="LINE-114" data-name="LINE">
    <line class="cls-4" x1="162.07" y1="143.55" x2="163.44" y2="143.55"/>
  </g>
  <g id="ARC-31" data-name="ARC">
    <path class="cls-4" d="M163.44,143.55c0,3.57,2.9,6.47,6.47,6.47s6.47-2.9,6.47-6.47"/>
  </g>
  <g id="LINE-115" data-name="LINE">
    <line class="cls-4" x1="176.38" y1="143.55" x2="177.75" y2="143.55"/>
  </g>
  <g id="ARC-32" data-name="ARC">
    <path class="cls-4" d="M177.75,143.55c0,3.57,2.9,6.47,6.47,6.47s6.47-2.9,6.47-6.47"/>
  </g>
  <g id="LINE-116" data-name="LINE">
    <line class="cls-4" x1="190.68" y1="143.55" x2="192.05" y2="143.55"/>
  </g>
  <g id="ARC-33" data-name="ARC">
    <path class="cls-4" d="M192.05,143.55c0,3.57,2.9,6.47,6.47,6.47s6.47-2.9,6.47-6.47"/>
  </g>
  <g id="LINE-117" data-name="LINE">
    <line class="cls-4" x1="204.99" y1="143.55" x2="206.36" y2="143.55"/>
  </g>
  <g id="ARC-34" data-name="ARC">
    <path class="cls-4" d="M206.36,143.55c0,3.57,2.9,6.47,6.47,6.47s6.47-2.9,6.47-6.47"/>
  </g>
  <g id="LINE-118" data-name="LINE">
    <line class="cls-4" x1="219.3" y1="143.55" x2="220.67" y2="143.55"/>
  </g>
  <g id="ARC-35" data-name="ARC">
    <path class="cls-4" d="M220.67,143.55c0,3.57,2.9,6.47,6.47,6.47s6.47-2.9,6.47-6.47"/>
  </g>
  <g id="LINE-119" data-name="LINE">
    <line class="cls-4" x1="233.6" y1="143.55" x2="234.98" y2="143.55"/>
  </g>
  <g id="ARC-36" data-name="ARC">
    <path class="cls-4" d="M249.28,143.55c-.79,2.79.84,5.68,3.62,6.47,2.79.79,5.68-.84,6.47-3.62.26-.93.26-1.91,0-2.84"/>
  </g>
  <g id="LINE-120" data-name="LINE">
    <line class="cls-4" x1="247.91" y1="143.55" x2="249.28" y2="143.55"/>
  </g>
  <g id="LINE-121" data-name="LINE">
    <line class="cls-4" x1="211.02" y1="442.54" x2="211.02" y2="446.7"/>
  </g>
  <g id="LINE-122" data-name="LINE">
    <line class="cls-4" x1="212.38" y1="442.54" x2="212.38" y2="446.7"/>
  </g>
  <g id="LINE-123" data-name="LINE">
    <line class="cls-4" x1="227.34" y1="442.54" x2="227.34" y2="446.7"/>
  </g>
  <g id="LINE-124" data-name="LINE">
    <line class="cls-4" x1="228.7" y1="442.54" x2="228.7" y2="446.7"/>
  </g>
  <g id="LINE-125" data-name="LINE">
    <line class="cls-4" x1="243.66" y1="442.54" x2="243.66" y2="446.7"/>
  </g>
  <g id="LINE-126" data-name="LINE">
    <line class="cls-4" x1="245.02" y1="442.54" x2="245.02" y2="446.7"/>
  </g>
  <g id="LINE-127" data-name="LINE">
    <line class="cls-4" x1="259.98" y1="442.54" x2="259.98" y2="446.7"/>
  </g>
  <g id="LINE-128" data-name="LINE">
    <line class="cls-4" x1="261.34" y1="442.54" x2="261.34" y2="446.7"/>
  </g>
</svg>