<?xml version="1.0" encoding="UTF-8"?>
<svg id="Camada_1" data-name="Camada 1" xmlns="http://www.w3.org/2000/svg" viewBox="0 0 362.61 485.89">
  <defs>
    <style>
      .cls-1 {
        font-size: 3.35px;
      }

      .cls-1, .cls-2, .cls-3, .cls-4 {
        font-family: ArialMT, Arial;
      }

      .cls-5 {
        letter-spacing: 0em;
      }

      .cls-2 {
        font-size: 9.39px;
      }

      .cls-6 {
        fill: none;
        stroke: #000;
        stroke-linecap: round;
        stroke-linejoin: round;
        stroke-width: .25px;
      }

      .cls-3 {
        font-size: 22.8px;
      }

      .cls-7 {
        letter-spacing: -.07em;
      }

      .cls-4 {
        font-size: 9.39px;
      }
    </style>
  </defs>
  <g id="LINE">
    <line class="cls-6" x1="29.84" y1="114.2" x2="34.12" y2="114.2"/>
  </g>
  <g id="LINE-2" data-name="LINE">
    <line class="cls-6" x1="230.68" y1="114.2" x2="234.96" y2="114.2"/>
  </g>
  <g id="LINE-3" data-name="LINE">
    <line class="cls-6" x1="64.69" y1="147.53" x2="67.11" y2="147.53"/>
  </g>
  <g id="LINE-4" data-name="LINE">
    <line class="cls-6" x1="109.81" y1="147.53" x2="111.22" y2="147.53"/>
  </g>
  <g id="LINE-5" data-name="LINE">
    <line class="cls-6" x1="153.93" y1="147.53" x2="155.34" y2="147.53"/>
  </g>
  <g id="LINE-6" data-name="LINE">
    <line class="cls-6" x1="198.04" y1="147.53" x2="200.11" y2="147.53"/>
  </g>
  <g id="LINE-7" data-name="LINE">
    <line class="cls-6" x1="64.69" y1="332.61" x2="200.11" y2="332.61"/>
  </g>
  <g id="LINE-8" data-name="LINE">
    <line class="cls-6" x1="29.84" y1="114.2" x2="29.84" y2="365.85"/>
  </g>
  <g id="LINE-9" data-name="LINE">
    <line class="cls-6" x1="34.12" y1="114.2" x2="34.12" y2="365.85"/>
  </g>
  <g id="LINE-10" data-name="LINE">
    <line class="cls-6" x1="64.69" y1="258.55" x2="64.69" y2="296.63"/>
  </g>
  <g id="LINE-11" data-name="LINE">
    <line class="cls-6" x1="234.96" y1="114.2" x2="234.96" y2="365.85"/>
  </g>
  <g id="LINE-12" data-name="LINE">
    <line class="cls-6" x1="230.68" y1="114.2" x2="230.68" y2="365.85"/>
  </g>
  <g id="LINE-13" data-name="LINE">
    <line class="cls-6" x1="200.11" y1="258.55" x2="200.11" y2="296.63"/>
  </g>
  <g id="LINE-14" data-name="LINE">
    <line class="cls-6" x1="64.69" y1="332.61" x2="34.12" y2="358.25"/>
  </g>
  <g id="LINE-15" data-name="LINE">
    <line class="cls-6" x1="200.11" y1="332.61" x2="230.68" y2="358.25"/>
  </g>
  <g id="ARC">
    <path class="cls-6" d="M111.22,147.53c0,3.67,2.98,6.65,6.65,6.65s6.65-2.98,6.65-6.65"/>
  </g>
  <g id="LINE-16" data-name="LINE">
    <line class="cls-6" x1="29.84" y1="365.85" x2="34.12" y2="365.85"/>
  </g>
  <g id="LINE-17" data-name="LINE">
    <line class="cls-6" x1="230.68" y1="365.85" x2="234.96" y2="365.85"/>
  </g>
  <g id="LINE-18" data-name="LINE">
    <line class="cls-6" x1="66.59" y1="305.31" x2="198.21" y2="305.31"/>
  </g>
  <g id="LINE-19" data-name="LINE">
    <line class="cls-6" x1="66.59" y1="298.53" x2="130.51" y2="298.53"/>
  </g>
  <g id="LINE-20" data-name="LINE">
    <line class="cls-6" x1="134.5" y1="298.53" x2="198.21" y2="298.53"/>
  </g>
  <g id="LINE-21" data-name="LINE">
    <line class="cls-6" x1="66.59" y1="256.65" x2="126.75" y2="256.65"/>
  </g>
  <g id="LINE-22" data-name="LINE">
    <line class="cls-6" x1="138.41" y1="256.65" x2="198.21" y2="256.65"/>
  </g>
  <g id="LINE-23" data-name="LINE">
    <line class="cls-6" x1="66.59" y1="250.27" x2="126.75" y2="250.27"/>
  </g>
  <g id="LINE-24" data-name="LINE">
    <line class="cls-6" x1="138.41" y1="250.27" x2="198.21" y2="250.27"/>
  </g>
  <g id="LINE-25" data-name="LINE">
    <line class="cls-6" x1="66.59" y1="161.71" x2="198.21" y2="161.71"/>
  </g>
  <g id="LINE-26" data-name="LINE">
    <line class="cls-6" x1="66.59" y1="199.61" x2="198.21" y2="199.61"/>
  </g>
  <g id="LINE-27" data-name="LINE">
    <line class="cls-6" x1="66.59" y1="205.99" x2="130.51" y2="205.99"/>
  </g>
  <g id="LINE-28" data-name="LINE">
    <line class="cls-6" x1="134.5" y1="205.99" x2="198.21" y2="205.99"/>
  </g>
  <g id="ARC-2" data-name="ARC">
    <path class="cls-6" d="M126.75,256.65c1.76,3.22,5.8,4.4,9.02,2.64,1.11-.61,2.03-1.53,2.64-2.64"/>
  </g>
  <g id="ARC-3" data-name="ARC">
    <path class="cls-6" d="M138.41,250.27c-1.76-3.22-5.8-4.4-9.02-2.64-1.11.61-2.03,1.53-2.64,2.64"/>
  </g>
  <g id="LINE-29" data-name="LINE">
    <line class="cls-6" x1="66.59" y1="324.46" x2="198.21" y2="324.46"/>
  </g>
  <g id="LINE-30" data-name="LINE">
    <line class="cls-6" x1="130.51" y1="205.99" x2="130.51" y2="247.14"/>
  </g>
  <g id="LINE-31" data-name="LINE">
    <line class="cls-6" x1="130.51" y1="259.78" x2="130.51" y2="298.53"/>
  </g>
  <g id="LINE-32" data-name="LINE">
    <line class="cls-6" x1="134.5" y1="205.99" x2="134.5" y2="247.09"/>
  </g>
  <g id="LINE-33" data-name="LINE">
    <line class="cls-6" x1="134.5" y1="259.82" x2="134.5" y2="298.53"/>
  </g>
  <g id="ARC-4" data-name="ARC">
    <path class="cls-6" d="M66.59,161.71c-1.05,0-1.9.85-1.9,1.9"/>
  </g>
  <g id="ARC-5" data-name="ARC">
    <path class="cls-6" d="M200.11,163.61c0-1.05-.85-1.9-1.9-1.9"/>
  </g>
  <g id="ARC-6" data-name="ARC">
    <path class="cls-6" d="M64.69,322.56c0,1.05.85,1.9,1.9,1.9"/>
  </g>
  <g id="ARC-7" data-name="ARC">
    <path class="cls-6" d="M198.21,324.46c1.05,0,1.9-.85,1.9-1.9"/>
  </g>
  <g id="ARC-8" data-name="ARC">
    <path class="cls-6" d="M198.21,298.53c1.05,0,1.9-.85,1.9-1.9"/>
  </g>
  <g id="ARC-9" data-name="ARC">
    <path class="cls-6" d="M200.11,258.55c0-1.05-.85-1.9-1.9-1.9"/>
  </g>
  <g id="ARC-10" data-name="ARC">
    <path class="cls-6" d="M66.59,256.65c-1.05,0-1.9.85-1.9,1.9"/>
  </g>
  <g id="ARC-11" data-name="ARC">
    <path class="cls-6" d="M64.69,296.63c0,1.05.85,1.9,1.9,1.9"/>
  </g>
  <g id="LINE-34" data-name="LINE">
    <line class="cls-6" x1="200.11" y1="307.21" x2="200.11" y2="322.56"/>
  </g>
  <g id="LINE-35" data-name="LINE">
    <line class="cls-6" x1="64.69" y1="307.21" x2="64.69" y2="322.56"/>
  </g>
  <g id="ARC-12" data-name="ARC">
    <path class="cls-6" d="M66.59,305.31c-1.05,0-1.9.85-1.9,1.9"/>
  </g>
  <g id="ARC-13" data-name="ARC">
    <path class="cls-6" d="M200.11,307.21c0-1.05-.85-1.9-1.9-1.9"/>
  </g>
  <g id="LINE-36" data-name="LINE">
    <line class="cls-6" x1="64.69" y1="163.61" x2="64.69" y2="197.71"/>
  </g>
  <g id="LINE-37" data-name="LINE">
    <line class="cls-6" x1="200.11" y1="163.61" x2="200.11" y2="197.71"/>
  </g>
  <g id="ARC-14" data-name="ARC">
    <path class="cls-6" d="M198.21,250.27c1.05,0,1.9-.85,1.9-1.9"/>
  </g>
  <g id="ARC-15" data-name="ARC">
    <path class="cls-6" d="M64.69,248.37c0,1.05.85,1.9,1.9,1.9"/>
  </g>
  <g id="ARC-16" data-name="ARC">
    <path class="cls-6" d="M64.69,197.71c0,1.05.85,1.9,1.9,1.9"/>
  </g>
  <g id="ARC-17" data-name="ARC">
    <path class="cls-6" d="M198.21,199.61c1.05,0,1.9-.85,1.9-1.9"/>
  </g>
  <g id="LINE-38" data-name="LINE">
    <line class="cls-6" x1="200.11" y1="207.89" x2="200.11" y2="248.37"/>
  </g>
  <g id="LINE-39" data-name="LINE">
    <line class="cls-6" x1="64.69" y1="207.89" x2="64.69" y2="248.37"/>
  </g>
  <g id="ARC-18" data-name="ARC">
    <path class="cls-6" d="M66.59,205.99c-1.05,0-1.9.85-1.9,1.9"/>
  </g>
  <g id="ARC-19" data-name="ARC">
    <path class="cls-6" d="M200.11,207.89c0-1.05-.85-1.9-1.9-1.9"/>
  </g>
  <g id="LINE-40" data-name="LINE">
    <line class="cls-6" x1="200.11" y1="197.71" x2="200.11" y2="207.89"/>
  </g>
  <g id="LINE-41" data-name="LINE">
    <line class="cls-6" x1="64.69" y1="207.89" x2="64.69" y2="197.71"/>
  </g>
  <g id="LINE-42" data-name="LINE">
    <line class="cls-6" x1="200.11" y1="307.21" x2="200.11" y2="296.63"/>
  </g>
  <g id="LINE-43" data-name="LINE">
    <line class="cls-6" x1="64.69" y1="307.21" x2="64.69" y2="296.63"/>
  </g>
  <g id="ARC-20" data-name="ARC">
    <path class="cls-6" d="M96.52,147.53c0,3.67,2.98,6.65,6.65,6.65s6.65-2.98,6.65-6.65"/>
  </g>
  <g id="ARC-21" data-name="ARC">
    <path class="cls-6" d="M84.66,142.08c-3.01,2.1-3.75,6.24-1.66,9.25s6.24,3.75,9.25,1.66c3.01-2.1,3.75-6.24,1.66-9.25-.45-.65-1.01-1.21-1.66-1.66"/>
  </g>
  <g id="ARC-22" data-name="ARC">
    <path class="cls-6" d="M96.52,147.71c-.11-2.58-1.81-4.82-4.26-5.63"/>
  </g>
  <g id="ARC-23" data-name="ARC">
    <path class="cls-6" d="M84.66,142.08c-2.4.88-4.07,3.08-4.26,5.63"/>
  </g>
  <g id="ARC-24" data-name="ARC">
    <path class="cls-6" d="M67.11,147.53c0,3.67,2.98,6.65,6.65,6.65s6.65-2.98,6.65-6.65"/>
  </g>
  <g id="ARC-25" data-name="ARC">
    <path class="cls-6" d="M184.75,147.53c0,3.67,2.98,6.65,6.65,6.65s6.65-2.98,6.65-6.65"/>
  </g>
  <g id="ARC-26" data-name="ARC">
    <path class="cls-6" d="M155.34,147.53c0,3.67,2.98,6.65,6.65,6.65s6.65-2.98,6.65-6.65"/>
  </g>
  <g id="ARC-27" data-name="ARC">
    <path class="cls-6" d="M140.63,147.53c0,3.67,2.98,6.65,6.65,6.65s6.65-2.98,6.65-6.65"/>
  </g>
  <g id="DIMENSION">
    <g id="LINE-44" data-name="LINE">
      <line class="cls-6" x1="84.66" y1="141.49" x2="84.66" y2="134.62"/>
    </g>
    <g id="LINE-45" data-name="LINE">
      <line class="cls-6" x1="92.26" y1="141.49" x2="92.26" y2="134.62"/>
    </g>
    <g id="LINE-46" data-name="LINE">
      <line class="cls-6" x1="87.04" y1="135.81" x2="89.89" y2="135.81"/>
    </g>
    <g id="SOLID">
      <polygon points="87.04 135.41 87.04 136.2 84.66 135.81 84.66 135.81 87.04 135.41"/>
    </g>
    <g id="SOLID-2" data-name="SOLID">
      <polygon points="89.89 136.2 89.89 135.41 92.26 135.81 92.26 135.81 89.89 136.2"/>
    </g>
    <g id="MTEXT">
      <text class="cls-1" transform="translate(87.55 135.17)"><tspan x="0" y="0">8</tspan></text>
    </g>
  </g>
  <g id="ARC-28" data-name="ARC">
    <path class="cls-6" d="M128.78,141.9c-3.01,2.1-3.75,6.24-1.66,9.25,2.1,3.01,6.24,3.75,9.25,1.66,3.01-2.1,3.75-6.24,1.66-9.25-.45-.65-1.01-1.21-1.66-1.66"/>
  </g>
  <g id="ARC-29" data-name="ARC">
    <path class="cls-6" d="M140.63,147.53c-.11-2.58-1.81-4.82-4.26-5.63"/>
  </g>
  <g id="ARC-30" data-name="ARC">
    <path class="cls-6" d="M128.78,141.9c-2.4.88-4.07,3.08-4.26,5.63"/>
  </g>
  <g id="DIMENSION-2" data-name="DIMENSION">
    <g id="LINE-47" data-name="LINE">
      <line class="cls-6" x1="128.78" y1="141.31" x2="128.78" y2="134.44"/>
    </g>
    <g id="LINE-48" data-name="LINE">
      <line class="cls-6" x1="136.37" y1="141.31" x2="136.37" y2="134.44"/>
    </g>
    <g id="LINE-49" data-name="LINE">
      <line class="cls-6" x1="131.15" y1="135.63" x2="134" y2="135.63"/>
    </g>
    <g id="SOLID-3" data-name="SOLID">
      <polygon points="131.15 135.23 131.15 136.02 128.78 135.63 128.78 135.63 131.15 135.23"/>
    </g>
    <g id="SOLID-4" data-name="SOLID">
      <polygon points="134 136.02 134 135.23 136.37 135.63 136.37 135.63 134 136.02"/>
    </g>
    <g id="MTEXT-2" data-name="MTEXT">
      <text class="cls-1" transform="translate(131.67 135)"><tspan x="0" y="0">8</tspan></text>
    </g>
  </g>
  <g id="ARC-31" data-name="ARC">
    <path class="cls-6" d="M172.89,141.9c-3.01,2.1-3.75,6.24-1.66,9.25s6.24,3.75,9.25,1.66,3.75-6.24,1.66-9.25c-.45-.65-1.01-1.21-1.66-1.66"/>
  </g>
  <g id="ARC-32" data-name="ARC">
    <path class="cls-6" d="M184.75,147.53c-.11-2.58-1.81-4.82-4.26-5.63"/>
  </g>
  <g id="ARC-33" data-name="ARC">
    <path class="cls-6" d="M172.89,141.9c-2.4.88-4.07,3.08-4.26,5.63"/>
  </g>
  <g id="DIMENSION-3" data-name="DIMENSION">
    <g id="LINE-50" data-name="LINE">
      <line class="cls-6" x1="172.89" y1="141.31" x2="172.89" y2="134.44"/>
    </g>
    <g id="LINE-51" data-name="LINE">
      <line class="cls-6" x1="180.49" y1="141.31" x2="180.49" y2="134.44"/>
    </g>
    <g id="LINE-52" data-name="LINE">
      <line class="cls-6" x1="175.27" y1="135.63" x2="178.11" y2="135.63"/>
    </g>
    <g id="SOLID-5" data-name="SOLID">
      <polygon points="175.27 135.23 175.27 136.02 172.89 135.63 172.89 135.63 175.27 135.23"/>
    </g>
    <g id="SOLID-6" data-name="SOLID">
      <polygon points="178.11 136.02 178.11 135.23 180.49 135.63 180.49 135.63 178.11 136.02"/>
    </g>
    <g id="MTEXT-3" data-name="MTEXT">
      <text class="cls-1" transform="translate(175.78 135)"><tspan x="0" y="0">8</tspan></text>
    </g>
  </g>
  <g id="LINE-53" data-name="LINE">
    <line class="cls-6" x1="200.11" y1="147.53" x2="230.68" y2="132"/>
  </g>
  <g id="LINE-54" data-name="LINE">
    <line class="cls-6" x1="65.04" y1="147.53" x2="34.12" y2="131.83"/>
  </g>
  <g id="DIMENSION-4" data-name="DIMENSION">
    <g id="LINE-55" data-name="LINE">
      <line class="cls-6" x1="12.63" y1="116.58" x2="12.63" y2="145.16"/>
    </g>
    <g id="SOLID-7" data-name="SOLID">
      <polygon points="13.02 116.58 12.23 116.58 12.63 114.2 12.63 114.2 13.02 116.58"/>
    </g>
    <g id="SOLID-8" data-name="SOLID">
      <polygon points="12.23 145.16 13.02 145.16 12.63 147.53 12.63 147.53 12.23 145.16"/>
    </g>
    <g id="MTEXT-4" data-name="MTEXT">
      <text class="cls-2" transform="translate(10.72 139.24) rotate(-90)"><tspan x="0" y="0">35,1</tspan></text>
    </g>
  </g>
  <g id="DIMENSION-5" data-name="DIMENSION">
    <g id="LINE-56" data-name="LINE">
      <line class="cls-6" x1="36.49" y1="103.05" x2="52.47" y2="103.05"/>
    </g>
    <g id="LINE-57" data-name="LINE">
      <line class="cls-6" x1="29.84" y1="103.05" x2="34.12" y2="103.05"/>
    </g>
    <g id="LINE-58" data-name="LINE">
      <line class="cls-6" x1="27.47" y1="103.05" x2="25.09" y2="103.05"/>
    </g>
    <g id="SOLID-9" data-name="SOLID">
      <polygon points="27.47 103.44 27.47 102.65 29.84 103.05 29.84 103.05 27.47 103.44"/>
    </g>
    <g id="SOLID-10" data-name="SOLID">
      <polygon points="36.49 102.65 36.49 103.44 34.12 103.05 34.12 103.05 36.49 102.65"/>
    </g>
    <g id="MTEXT-5" data-name="MTEXT">
      <text class="cls-2" transform="translate(39.34 101.15)"><tspan x="0" y="0">4,5</tspan></text>
    </g>
  </g>
  <g id="DIMENSION-6" data-name="DIMENSION">
    <g id="LINE-59" data-name="LINE">
      <line class="cls-6" x1="100.43" y1="189.54" x2="78.59" y2="155.15"/>
    </g>
    <g id="MTEXT-6" data-name="MTEXT">
      <text class="cls-4" transform="translate(86.54 166.36) rotate(57.59)"><tspan x="0" y="0">9 x R7</tspan></text>
    </g>
    <g id="LINE-60" data-name="LINE">
      <line class="cls-6" x1="73.76" y1="147.53" x2="77.32" y2="153.15"/>
    </g>
    <g id="SOLID-11" data-name="SOLID">
      <polygon points="78.93 154.94 78.26 155.36 77.32 153.15 77.32 153.15 78.93 154.94"/>
    </g>
  </g>
  <g id="DIMENSION-7" data-name="DIMENSION">
    <g id="LINE-61" data-name="LINE">
      <line class="cls-6" x1="32.22" y1="79.89" x2="232.58" y2="79.89"/>
    </g>
    <g id="SOLID-12" data-name="SOLID">
      <polygon points="32.22 79.49 32.22 80.28 29.84 79.89 29.84 79.89 32.22 79.49"/>
    </g>
    <g id="SOLID-13" data-name="SOLID">
      <polygon points="232.58 80.28 232.58 79.49 234.96 79.89 234.96 79.89 232.58 80.28"/>
    </g>
    <g id="MTEXT-7" data-name="MTEXT">
      <text class="cls-2" transform="translate(124.73 79.19)"><tspan x="0" y="0">216</tspan></text>
    </g>
  </g>
  <g id="DIMENSION-8" data-name="DIMENSION">
    <g id="LINE-62" data-name="LINE">
      <line class="cls-6" x1="228.31" y1="104.2" x2="212.33" y2="104.2"/>
    </g>
    <g id="LINE-63" data-name="LINE">
      <line class="cls-6" x1="234.96" y1="104.2" x2="230.68" y2="104.2"/>
    </g>
    <g id="LINE-64" data-name="LINE">
      <line class="cls-6" x1="237.33" y1="104.2" x2="239.71" y2="104.2"/>
    </g>
    <g id="SOLID-14" data-name="SOLID">
      <polygon points="237.33 103.81 237.33 104.6 234.96 104.2 234.96 104.2 237.33 103.81"/>
    </g>
    <g id="SOLID-15" data-name="SOLID">
      <polygon points="228.31 104.6 228.31 103.81 230.68 104.2 230.68 104.2 228.31 104.6"/>
    </g>
    <g id="MTEXT-8" data-name="MTEXT">
      <text class="cls-2" transform="translate(212.81 102.3)"><tspan x="0" y="0">4,5</tspan></text>
    </g>
  </g>
  <g id="DIMENSION-9" data-name="DIMENSION">
    <g id="LINE-65" data-name="LINE">
      <line class="cls-6" x1="62.32" y1="385.84" x2="32.22" y2="385.84"/>
    </g>
    <g id="SOLID-16" data-name="SOLID">
      <polygon points="62.32 386.23 62.32 385.44 64.69 385.84 64.69 385.84 62.32 386.23"/>
    </g>
    <g id="SOLID-17" data-name="SOLID">
      <polygon points="32.22 385.44 32.22 386.23 29.84 385.84 29.84 385.84 32.22 385.44"/>
    </g>
    <g id="MTEXT-9" data-name="MTEXT">
      <text class="cls-2" transform="translate(38.25 383.93)"><tspan x="0" y="0">36,7</tspan></text>
    </g>
  </g>
  <g id="DIMENSION-10" data-name="DIMENSION">
    <g id="LINE-66" data-name="LINE">
      <line class="cls-6" x1="8.76" y1="334.99" x2="8.76" y2="363.47"/>
    </g>
    <g id="SOLID-18" data-name="SOLID">
      <polygon points="9.16 334.99 8.36 334.99 8.76 332.61 8.76 332.61 9.16 334.99"/>
    </g>
    <g id="SOLID-19" data-name="SOLID">
      <polygon points="8.36 363.47 9.16 363.47 8.76 365.85 8.76 365.85 8.36 363.47"/>
    </g>
    <g id="MTEXT-10" data-name="MTEXT">
      <text class="cls-2" transform="translate(8.06 354.39) rotate(-90)"><tspan x="0" y="0">35</tspan></text>
    </g>
  </g>
  <g id="MTEXT-11" data-name="MTEXT">
    <text class="cls-3" transform="translate(6.06 19.57)"><tspan x="0" y="0">ES</tspan><tspan class="cls-7" x="30.42" y="0">P</tspan><tspan class="cls-5" x="43.93" y="0">AÇADOR DE 15 cm</tspan></text>
  </g>
  <g id="LINE-67" data-name="LINE">
    <line class="cls-6" x1="336.85" y1="114.2" x2="359.64" y2="114.2"/>
  </g>
  <g id="LINE-68" data-name="LINE">
    <line class="cls-6" x1="336.85" y1="365.85" x2="359.64" y2="365.85"/>
  </g>
  <g id="LINE-69" data-name="LINE">
    <line class="cls-6" x1="334" y1="117.05" x2="334" y2="363"/>
  </g>
  <g id="LINE-70" data-name="LINE">
    <line class="cls-6" x1="362.48" y1="117.05" x2="362.48" y2="363"/>
  </g>
  <g id="ARC-34" data-name="ARC">
    <path class="cls-6" d="M336.85,114.2c-1.57,0-2.85,1.28-2.85,2.85"/>
  </g>
  <g id="ARC-35" data-name="ARC">
    <path class="cls-6" d="M362.48,117.05c0-1.57-1.28-2.85-2.85-2.85"/>
  </g>
  <g id="ARC-36" data-name="ARC">
    <path class="cls-6" d="M334,363c0,1.57,1.28,2.85,2.85,2.85"/>
  </g>
  <g id="ARC-37" data-name="ARC">
    <path class="cls-6" d="M359.64,365.85c1.57,0,2.85-1.28,2.85-2.85"/>
  </g>
  <g id="DIMENSION-11" data-name="DIMENSION">
    <g id="LINE-71" data-name="LINE">
      <line class="cls-6" x1="336.37" y1="100.57" x2="360.11" y2="100.57"/>
    </g>
    <g id="SOLID-20" data-name="SOLID">
      <polygon points="336.37 100.18 336.37 100.97 334 100.57 334 100.57 336.37 100.18"/>
    </g>
    <g id="SOLID-21" data-name="SOLID">
      <polygon points="360.11 100.97 360.11 100.18 362.48 100.57 362.48 100.57 360.11 100.97"/>
    </g>
    <g id="MTEXT-12" data-name="MTEXT">
      <text class="cls-2" transform="translate(343.11 99.87)"><tspan x="0" y="0">30</tspan></text>
    </g>
  </g>
  <g id="DIMENSION-12" data-name="DIMENSION">
    <g id="LINE-72" data-name="LINE">
      <line class="cls-6" x1="321.52" y1="116.58" x2="321.52" y2="363.47"/>
    </g>
    <g id="SOLID-22" data-name="SOLID">
      <polygon points="321.92 116.58 321.13 116.58 321.52 114.2 321.52 114.2 321.92 116.58"/>
    </g>
    <g id="SOLID-23" data-name="SOLID">
      <polygon points="321.13 363.47 321.92 363.47 321.52 365.85 321.52 365.85 321.13 363.47"/>
    </g>
    <g id="MTEXT-13" data-name="MTEXT">
      <text class="cls-2" transform="translate(320.82 247.71) rotate(-90)"><tspan x="0" y="0">265</tspan></text>
    </g>
  </g>
  <g id="LINE-73" data-name="LINE">
    <line class="cls-6" x1="34.12" y1="459.11" x2="230.68" y2="459.11"/>
  </g>
  <g id="LINE-74" data-name="LINE">
    <line class="cls-6" x1="36.29" y1="454.84" x2="36.29" y2="459.11"/>
  </g>
  <g id="LINE-75" data-name="LINE">
    <line class="cls-6" x1="29.84" y1="454.84" x2="29.84" y2="459.11"/>
  </g>
  <g id="LINE-76" data-name="LINE">
    <line class="cls-6" x1="34.12" y1="454.84" x2="230.68" y2="454.84"/>
  </g>
  <g id="LINE-77" data-name="LINE">
    <line class="cls-6" x1="234.96" y1="471.22" x2="234.96" y2="442.73"/>
  </g>
  <g id="LINE-78" data-name="LINE">
    <line class="cls-6" x1="234.96" y1="471.22" x2="230.68" y2="471.22"/>
  </g>
  <g id="LINE-79" data-name="LINE">
    <line class="cls-6" x1="230.68" y1="471.22" x2="230.68" y2="442.73"/>
  </g>
  <g id="LINE-80" data-name="LINE">
    <line class="cls-6" x1="230.68" y1="442.73" x2="234.96" y2="442.73"/>
  </g>
  <g id="LINE-81" data-name="LINE">
    <line class="cls-6" x1="34.12" y1="456.97" x2="34.12" y2="442.73"/>
  </g>
  <g id="LINE-82" data-name="LINE">
    <line class="cls-6" x1="34.12" y1="456.97" x2="34.12" y2="471.22"/>
  </g>
  <g id="LINE-83" data-name="LINE">
    <line class="cls-6" x1="34.12" y1="471.22" x2="29.84" y2="471.22"/>
  </g>
  <g id="LINE-84" data-name="LINE">
    <line class="cls-6" x1="29.84" y1="471.22" x2="29.84" y2="442.73"/>
  </g>
  <g id="LINE-85" data-name="LINE">
    <line class="cls-6" x1="29.84" y1="442.73" x2="34.12" y2="442.73"/>
  </g>
  <g id="LINE-86" data-name="LINE">
    <line class="cls-6" x1="64.69" y1="454.84" x2="64.69" y2="459.11"/>
  </g>
  <g id="LINE-87" data-name="LINE">
    <line class="cls-6" x1="200.11" y1="454.84" x2="200.11" y2="459.11"/>
  </g>
  <g id="LINE-88" data-name="LINE">
    <line class="cls-6" x1="109.81" y1="454.84" x2="109.81" y2="459.11"/>
  </g>
  <g id="LINE-89" data-name="LINE">
    <line class="cls-6" x1="153.93" y1="454.84" x2="153.93" y2="459.11"/>
  </g>
  <g id="LINE-90" data-name="LINE">
    <line class="cls-6" x1="168.63" y1="454.84" x2="168.63" y2="459.11"/>
  </g>
  <g id="LINE-91" data-name="LINE">
    <line class="cls-6" x1="183.33" y1="454.84" x2="183.33" y2="459.11"/>
  </g>
  <g id="LINE-92" data-name="LINE">
    <line class="cls-6" x1="139.23" y1="454.84" x2="139.23" y2="459.11"/>
  </g>
  <g id="LINE-93" data-name="LINE">
    <line class="cls-6" x1="124.53" y1="454.84" x2="124.53" y2="459.11"/>
  </g>
  <g id="LINE-94" data-name="LINE">
    <line class="cls-6" x1="95.11" y1="454.84" x2="95.11" y2="459.11"/>
  </g>
  <g id="LINE-95" data-name="LINE">
    <line class="cls-6" x1="80.41" y1="454.84" x2="80.41" y2="459.11"/>
  </g>
  <g id="LINE-96" data-name="LINE">
    <line class="cls-6" x1="81.81" y1="454.84" x2="81.81" y2="459.11"/>
  </g>
  <g id="LINE-97" data-name="LINE">
    <line class="cls-6" x1="96.51" y1="454.84" x2="96.51" y2="459.11"/>
  </g>
  <g id="LINE-98" data-name="LINE">
    <line class="cls-6" x1="111.21" y1="454.84" x2="111.21" y2="459.11"/>
  </g>
  <g id="LINE-99" data-name="LINE">
    <line class="cls-6" x1="125.93" y1="454.84" x2="125.93" y2="459.11"/>
  </g>
  <g id="LINE-100" data-name="LINE">
    <line class="cls-6" x1="140.63" y1="454.84" x2="140.63" y2="459.11"/>
  </g>
  <g id="LINE-101" data-name="LINE">
    <line class="cls-6" x1="155.33" y1="454.84" x2="155.33" y2="459.11"/>
  </g>
  <g id="LINE-102" data-name="LINE">
    <line class="cls-6" x1="170.03" y1="454.84" x2="170.03" y2="459.11"/>
  </g>
  <g id="LINE-103" data-name="LINE">
    <line class="cls-6" x1="184.74" y1="454.84" x2="184.74" y2="459.11"/>
  </g>
  <g id="LINE-104" data-name="LINE">
    <line class="cls-6" x1="201.51" y1="147.53" x2="201.51" y2="333.79"/>
  </g>
  <g id="LINE-105" data-name="LINE">
    <line class="cls-6" x1="66.09" y1="454.84" x2="66.09" y2="459.11"/>
  </g>
  <g id="LINE-106" data-name="LINE">
    <line class="cls-6" x1="201.51" y1="454.84" x2="201.51" y2="459.11"/>
  </g>
  <g id="LINE-107" data-name="LINE">
    <line class="cls-6" x1="228.6" y1="454.84" x2="228.6" y2="459.11"/>
  </g>
  <g id="LINE-108" data-name="LINE">
    <line class="cls-6" x1="29.84" y1="445.24" x2="34.12" y2="445.24"/>
  </g>
  <g id="LINE-109" data-name="LINE">
    <line class="cls-6" x1="230.68" y1="445.24" x2="234.96" y2="445.24"/>
  </g>
  <g id="LINE-110" data-name="LINE">
    <line class="cls-6" x1="29.84" y1="468.77" x2="34.12" y2="468.77"/>
  </g>
  <g id="LINE-111" data-name="LINE">
    <line class="cls-6" x1="230.68" y1="468.77" x2="234.96" y2="468.77"/>
  </g>
  <g id="DIMENSION-13" data-name="DIMENSION">
    <g id="LINE-112" data-name="LINE">
      <line class="cls-6" x1="237.33" y1="484.74" x2="253.31" y2="484.74"/>
    </g>
    <g id="LINE-113" data-name="LINE">
      <line class="cls-6" x1="230.68" y1="484.74" x2="234.96" y2="484.74"/>
    </g>
    <g id="LINE-114" data-name="LINE">
      <line class="cls-6" x1="228.31" y1="484.74" x2="225.94" y2="484.74"/>
    </g>
    <g id="SOLID-24" data-name="SOLID">
      <polygon points="228.31 485.13 228.31 484.34 230.68 484.74 230.68 484.74 228.31 485.13"/>
    </g>
    <g id="SOLID-25" data-name="SOLID">
      <polygon points="237.33 484.34 237.33 485.13 234.96 484.74 234.96 484.74 237.33 484.34"/>
    </g>
    <g id="MTEXT-14" data-name="MTEXT">
      <text class="cls-2" transform="translate(240.19 482.84)"><tspan x="0" y="0">4,5</tspan></text>
    </g>
  </g>
  <g id="DIMENSION-14" data-name="DIMENSION">
    <g id="LINE-115" data-name="LINE">
      <line class="cls-6" x1="36.49" y1="483.67" x2="52.47" y2="483.67"/>
    </g>
    <g id="LINE-116" data-name="LINE">
      <line class="cls-6" x1="29.84" y1="483.67" x2="34.12" y2="483.67"/>
    </g>
    <g id="LINE-117" data-name="LINE">
      <line class="cls-6" x1="27.47" y1="483.67" x2="25.09" y2="483.67"/>
    </g>
    <g id="SOLID-26" data-name="SOLID">
      <polygon points="27.47 484.06 27.47 483.27 29.84 483.67 29.84 483.67 27.47 484.06"/>
    </g>
    <g id="SOLID-27" data-name="SOLID">
      <polygon points="36.49 483.27 36.49 484.06 34.12 483.67 34.12 483.67 36.49 483.27"/>
    </g>
    <g id="MTEXT-15" data-name="MTEXT">
      <text class="cls-2" transform="translate(39.34 481.77)"><tspan x="0" y="0">4,5</tspan></text>
    </g>
  </g>
  <g id="DIMENSION-15" data-name="DIMENSION">
    <g id="LINE-118" data-name="LINE">
      <line class="cls-6" x1="21.34" y1="452.46" x2="21.34" y2="436.48"/>
    </g>
    <g id="LINE-119" data-name="LINE">
      <line class="cls-6" x1="21.34" y1="459.11" x2="21.34" y2="454.84"/>
    </g>
    <g id="LINE-120" data-name="LINE">
      <line class="cls-6" x1="21.34" y1="461.48" x2="21.34" y2="463.86"/>
    </g>
    <g id="SOLID-28" data-name="SOLID">
      <polygon points="21.74 461.48 20.95 461.48 21.34 459.11 21.34 459.11 21.74 461.48"/>
    </g>
    <g id="SOLID-29" data-name="SOLID">
      <polygon points="20.95 452.46 21.74 452.46 21.34 454.84 21.34 454.84 20.95 452.46"/>
    </g>
    <g id="MTEXT-16" data-name="MTEXT">
      <text class="cls-2" transform="translate(19.44 449.6) rotate(-90)"><tspan x="0" y="0">4,5</tspan></text>
    </g>
  </g>
</svg>